<svg width="1366" height="427" viewBox="0 0 1366 427" fill="none" xmlns="http://www.w3.org/2000/svg">
<path fill-rule="evenodd" clip-rule="evenodd" d="M205.347 0.690974C205.347 1.04275 204.956 1.18095 204.478 0.997788C204 0.814624 203.06 1.27022 202.39 2.01081C201.72 2.75074 200.398 3.35776 199.454 3.35908C196.822 3.36239 193.977 5.42612 186.917 12.4525C180.244 19.0933 174.908 25.6297 174.908 27.1618C174.908 27.6419 173.273 31.3931 171.275 35.4994C169.277 39.605 166.905 44.9227 166.003 47.3164C163.787 53.1982 155.929 81.5582 155.372 85.681C155.126 87.4994 154.679 89.4461 154.379 90.0075C154.079 90.5682 153.058 95.7755 152.111 101.579C151.164 107.382 149.78 115.408 149.036 119.414C147.703 126.596 147.651 126.716 145.249 128.096C133.362 134.929 122.598 140.674 117.453 142.934C114.059 144.424 108.252 147.407 104.549 149.56C97.7843 153.496 88.91 157.329 86.0071 157.569C84.8504 157.664 84.5288 158.01 84.763 158.904C85.6564 162.319 91.2882 162.921 102.451 160.794C110.593 159.243 129.079 153.208 136.881 149.555L142.674 146.843L142.246 151.435C142.012 153.96 141.373 158.146 140.828 160.737C140.282 163.327 139.836 166.303 139.836 167.348C139.836 168.394 139.549 169.428 139.197 169.645C138.845 169.863 138.724 170.878 138.929 171.902C139.134 172.925 138.826 175.615 138.246 177.881C137.665 180.145 137.19 182.835 137.19 183.858C137.19 184.881 136.745 187.907 136.202 190.582C135.658 193.258 134.923 197.828 134.567 200.737C134.211 203.646 133.603 207.515 133.216 209.333C132.828 211.152 131.909 216.061 131.173 220.244C130.437 224.426 129.732 228.294 129.606 228.84C129.481 229.385 129.164 231.468 128.901 233.468C128.639 235.469 128.217 237.403 127.964 237.767C127.711 238.13 127.45 239.29 127.383 240.345C127.317 241.399 127.004 242.589 126.688 242.99C126.372 243.39 125.938 245.057 125.723 246.693C125.508 248.33 124.864 252.049 124.291 254.959C123.719 257.868 123.129 260.993 122.983 261.902C122.835 262.811 122.294 264.745 121.78 266.2C121.265 267.655 120.959 269.172 121.099 269.572C121.238 269.972 120.896 270.678 120.338 271.141C119.78 271.604 119.323 272.728 119.323 273.64C119.323 275.232 119.199 275.281 116.18 274.902C113.966 274.623 112.668 274.786 111.788 275.453C110.956 276.082 110.167 276.2 109.429 275.804C108.331 275.217 104.368 275.8 102.778 276.781C102.328 277.059 99.9309 277.38 97.4535 277.492C94.5062 277.626 91.9969 278.182 90.1977 279.099C88.6857 279.87 86.2777 280.517 84.8484 280.537C83.4184 280.557 82.1023 280.809 81.9236 281.098C81.7449 281.387 80.3341 281.832 78.7897 282.087C77.2446 282.341 75.6399 282.824 75.223 283.159C74.8068 283.495 74.2113 283.711 73.8996 283.639C73.5886 283.567 72.4954 283.855 71.4711 284.278C70.4468 284.699 69.2557 285.047 68.8242 285.049C68.3928 285.052 67.2255 285.478 66.2303 285.997C65.2351 286.516 60.9174 288.334 56.6354 290.037C46.9048 293.908 33.959 300.449 26.9706 305.025C16.0185 312.197 4.23459 326.52 2.34208 334.962C1.85174 337.148 1.05901 342.21 0.579923 346.21C-0.265753 353.273 -0.251857 353.515 1.05768 354.556C1.87358 355.206 2.24547 356.046 1.99997 356.686C1.77631 357.268 1.95299 358.124 2.39237 358.589C3.289 359.538 5.80816 364.634 6.45333 366.803C6.6856 367.582 7.49091 368.38 8.24328 368.577C8.99565 368.773 9.4304 369.226 9.20939 369.583C8.98904 369.94 9.03337 370.332 9.30864 370.455C9.58392 370.576 11.4109 372.453 13.3689 374.625C15.3263 376.797 17.4484 378.88 18.0844 379.254C25.5002 383.613 29.1939 385.538 30.1567 385.545C30.794 385.55 31.3147 385.813 31.3147 386.129C31.3147 387.252 44.559 388.629 46.2524 387.682C47.057 387.232 47.9371 387.242 48.972 387.714C50.7984 388.545 57.2521 387.313 58.7118 385.854C59.222 385.344 61.0828 384.604 62.8469 384.209C64.6111 383.814 66.6498 382.953 67.3784 382.295C68.1063 381.637 69.484 380.915 70.4401 380.689C71.3963 380.464 72.6635 379.54 73.2564 378.637C74.2688 377.091 80.6399 373.652 82.4874 373.652C83.378 373.652 87.9227 369.275 87.8473 368.49C87.7917 367.917 90.1613 366.079 91.6581 365.534C92.2735 365.31 93.3104 364.292 93.9622 363.273C95.3121 361.161 97.5296 359.352 98.4163 359.639C99.248 359.91 104.104 355.071 104.104 353.972C104.104 353.479 104.388 353.251 104.736 353.466C105.084 353.681 105.89 353.029 106.526 352.017C107.162 351.005 108.59 349.093 109.698 347.767C113.104 343.693 117.298 337.539 118.297 335.152C118.82 333.902 119.695 332.508 120.244 332.053C120.792 331.599 121.592 330.135 122.02 328.8C122.449 327.465 123.172 325.927 123.627 325.381C124.851 323.914 129.011 314.898 129.96 311.66C130.412 310.115 131.032 308.85 131.339 308.85C131.645 308.85 131.896 308.418 131.896 307.891C131.896 307.364 132.417 306.629 133.054 306.258C133.691 305.887 133.974 305.575 133.682 305.564C133.391 305.553 133.862 304.577 134.729 303.395C136.357 301.177 137.851 296.867 137.851 294.391C137.851 293.615 138.149 292.98 138.513 292.98C138.877 292.98 139.175 292.421 139.175 291.739C139.175 290.358 140.535 290.36 150.513 291.752C153.291 292.14 156.209 292.252 156.996 292.003C157.786 291.752 158.833 291.885 159.332 292.298C159.829 292.71 162.42 293.226 165.09 293.444C167.76 293.662 170.094 294.024 170.276 294.248C170.457 294.472 172.009 295.018 173.724 295.462C177.061 296.325 183.628 295.865 182.069 294.877C180.989 294.193 182.053 294.214 183.841 294.912C185.122 295.413 185.117 295.445 183.675 295.902C181.633 296.552 181.783 297.84 183.857 297.444C184.775 297.268 185.686 297.383 185.881 297.697C186.075 298.012 186.823 298.27 187.542 298.27C188.262 298.27 189.564 298.738 190.437 299.309C191.687 300.128 192.321 300.188 193.428 299.597C194.201 299.183 195.188 298.99 195.623 299.167C196.211 299.406 196.202 299.501 195.586 299.54C195.132 299.569 194.759 299.877 194.759 300.224C194.759 301.25 199.457 301.853 200.82 301.003C201.853 300.358 202.038 300.447 202.038 301.594C202.038 302.759 202.229 302.843 203.418 302.207C204.177 301.801 204.971 301.642 205.182 301.853C205.394 302.065 205.294 302.239 204.961 302.24C204.627 302.242 205.348 302.848 206.563 303.589C207.778 304.329 209.267 304.781 209.872 304.593C210.476 304.405 211.418 304.562 211.964 304.941C212.731 305.474 212.581 305.545 211.302 305.256C210.392 305.049 210.917 305.465 212.468 306.18C214.019 306.895 215.701 307.322 216.206 307.128C216.711 306.934 217.32 307.094 217.561 307.483C217.801 307.871 217.664 308.189 217.258 308.189C216.851 308.189 216.702 308.486 216.927 308.85C217.152 309.214 218.067 309.511 218.96 309.511C219.853 309.511 221.101 309.761 221.733 310.066C226.064 312.157 230.547 314.675 232.808 316.286C234.264 317.324 237.018 319.209 238.929 320.475C240.839 321.741 242.403 323.076 242.403 323.441C242.403 323.807 240.749 328.632 238.728 334.166C234.041 346.996 231.936 355.075 231.085 363.506C229.423 379.959 234.066 400 241.427 408.141C242.691 409.541 243.726 410.968 243.726 411.313C243.726 411.659 245.066 413.262 246.704 414.875C248.342 416.489 249.682 418.288 249.682 418.874C249.682 419.498 250.23 419.939 251.005 419.939C251.733 419.939 252.329 420.236 252.329 420.6C252.329 420.964 252.787 421.261 253.348 421.261C253.909 421.261 255.174 421.834 256.16 422.534C258.199 423.981 266.106 426.196 271.52 426.836C274.263 427.16 275.487 427.02 276.483 426.269C277.21 425.72 278.698 425.254 279.79 425.234C280.882 425.214 283.562 424.43 285.745 423.491C287.929 422.553 291.502 421.031 293.686 420.109C297.605 418.455 304.122 414.257 307.454 411.24C308.397 410.387 310.002 409.02 311.022 408.202C316.548 403.771 317.749 402.576 318.499 400.766C318.952 399.673 319.525 398.779 319.773 398.779C321.045 398.779 326.551 392.375 328.003 389.206C328.918 387.208 330.43 384.574 331.363 383.352C332.295 382.131 333.058 380.857 333.058 380.523C333.058 380.188 333.665 378.782 334.407 377.399C335.967 374.491 341.99 353.909 343.315 346.959C344.436 341.078 344.53 334.382 343.708 318.769C342.724 300.069 341.718 295.144 334.726 274.823C332.353 267.928 330.411 261.725 330.411 261.039C330.411 259.741 328.928 256.754 326.937 254.043C326.301 253.175 325.779 252.031 325.779 251.501C325.779 250.969 325.221 249.744 324.538 248.779C323.856 247.813 323.098 246.106 322.855 244.985C322.612 243.863 321.221 241.36 319.764 239.422C318.308 237.484 317.352 235.724 317.643 235.51C317.933 235.296 318.267 234.682 318.385 234.145C318.819 232.18 331.049 214.477 335.464 209.423C337.962 206.563 340.308 203.736 340.676 203.141C341.045 202.546 342.22 200.572 343.288 198.753C344.356 196.935 346.332 194.257 347.679 192.802C349.027 191.347 353.227 186.858 357.014 182.825C360.801 178.792 365.791 173.139 368.102 170.261C370.413 167.384 374.779 162.501 377.804 159.409C381.563 155.567 383.623 152.874 384.318 150.895C384.877 149.304 385.334 147.742 385.334 147.424C385.334 146.627 382.217 146.696 380.661 147.529C379.959 147.904 372.165 155.391 363.341 164.166C354.517 172.942 346.55 180.596 345.637 181.177C340.813 184.247 329.002 196.207 321.749 205.366C318.87 209.003 315.656 212.901 314.609 214.027C313.563 215.155 312.169 216.94 311.513 217.995C310.856 219.05 309.598 220.705 308.718 221.673L307.117 223.432L302.749 218.697C300.347 216.092 295.489 211.135 291.953 207.68C288.417 204.225 285.037 200.61 284.444 199.647L283.366 197.896L289.159 191.813C292.345 188.467 297.497 183.934 300.606 181.739C303.715 179.544 307.959 176.226 310.036 174.365C312.115 172.504 314.944 170.044 316.323 168.898C317.702 167.752 319.963 164.713 321.345 162.146C323.737 157.705 323.822 157.34 323.096 154.645C321.981 150.508 320.153 147.24 317.887 145.335C314.512 142.497 306.099 141.44 297.943 142.829C287.027 144.689 286.22 144.44 290.399 140.501C291.686 139.288 294.659 135.088 297.007 131.165C299.356 127.243 302.144 123.14 303.203 122.049C306.824 118.321 313.174 109.087 313.854 106.56C314.228 105.173 315.083 103.33 315.753 102.464C317.911 99.6762 321.28 87.5351 321.602 81.3829C322.011 73.5518 321.09 71.9629 314.158 68.5436C308.932 65.9661 305.3 65.0635 297.576 64.4221C294.017 64.1265 293.054 64.3242 289.636 66.054C282.871 69.4766 279.364 72.6803 271.849 82.2994C260.579 96.7277 255.308 106.112 252.495 116.759C251.018 122.351 251.041 139.557 252.53 143.05C253.935 146.345 258.786 151.909 261.082 152.86C262.091 153.277 262.916 154.023 262.916 154.517C262.916 155.011 264.098 156.017 265.542 156.754L268.167 158.092L266.038 162.556C249.799 196.596 237.394 215.954 226.636 224.046C223.292 226.561 223.055 226.294 222.238 219.088C221.785 215.092 222.721 204.093 224.25 195.447C225.783 186.774 232.163 165.925 235.034 160.206C236.776 156.735 237.202 152.562 235.99 150.834C234.539 148.763 230.523 146.452 227.514 145.955C226.058 145.715 223.851 145.33 222.609 145.1C220.088 144.631 218.581 145.921 218.581 148.545C218.581 149.341 217.847 151.594 216.95 153.552C214.615 158.65 209.595 178.252 208.339 187.182C207.75 191.364 207.272 198.659 207.277 203.395C207.294 220.564 211.074 229.945 219.569 233.898C223.425 235.692 225.334 235.812 229.067 234.496C232.3 233.356 239.756 228.237 239.756 227.157C239.756 226.738 241.814 224.061 244.329 221.208C248.541 216.432 258.876 199.33 258.985 196.957C259.022 196.147 259.985 194.193 263.516 187.766C266.653 182.058 273.127 165.034 272.529 164.067C272.325 163.738 272.482 163.268 272.878 163.024C273.273 162.78 273.823 161.968 274.1 161.219C274.577 159.931 275.072 159.863 283.153 159.972C288.453 160.044 293.335 159.734 296.002 159.157C298.368 158.646 300.397 158.314 300.512 158.422C300.909 158.789 291.568 167.759 284.034 174.246C269.784 186.515 266.18 190.208 265.163 193.581C263.477 199.181 264.284 202.615 268.03 205.783C269.049 206.645 274.196 212.651 279.468 219.129C293.643 236.549 293.997 237.013 294.008 238.184C294.013 238.777 291.858 242.118 289.219 245.61C282.672 254.273 280.628 257.15 279.43 259.386C278.868 260.435 278.248 261.132 278.052 260.936C277.855 260.74 277.694 260.993 277.694 261.499C277.694 262.004 277.036 263.269 276.231 264.309C274.923 266 264.744 281.511 259.111 290.398C257.928 292.264 256.961 294.189 256.961 294.675C256.961 295.162 256.514 295.81 255.967 296.115C254.998 296.657 252.329 301.289 252.329 302.429C252.329 302.744 251.264 305.215 249.962 307.918C248.397 311.17 247.333 312.669 246.819 312.347C246.392 312.079 245.596 311.853 245.052 311.843C244.506 311.834 244.06 311.383 244.059 310.843C244.058 310.302 243.475 309.748 242.764 309.611C242.053 309.474 240.117 308.24 238.463 306.868C234.183 303.318 225.994 298.377 217.919 294.473C209.899 290.594 194.321 284.829 193.4 285.398C193.056 285.611 192.774 285.498 192.774 285.148C192.774 284.506 184.299 281.617 181.856 281.427C181.128 281.37 178.894 280.842 176.893 280.253C172.603 278.992 166.615 278.065 164.413 278.323C163.553 278.424 162.256 277.969 161.53 277.312C160.473 276.358 158.997 276.105 154.158 276.051C146.132 275.961 146.208 275.973 144.57 274.553C142.892 273.099 142.8 271.976 144.117 269.033C144.652 267.838 145.717 263.588 146.483 259.588C147.25 255.587 148.345 250.528 148.915 248.346C149.486 246.164 149.903 243.526 149.842 242.483C149.779 241.44 150.04 240.213 150.419 239.757C150.818 239.276 151.001 236.797 150.853 233.868C150.714 231.086 150.859 228.649 151.176 228.454C151.493 228.258 151.586 227.437 151.383 226.629C151.18 225.821 151.362 223.83 151.785 222.206C152.209 220.581 152.652 218.062 152.769 216.607C152.886 215.152 153.592 211.73 154.338 209.003C155.084 206.275 155.71 203.002 155.73 201.729C155.749 200.456 156.19 198.671 156.71 197.761C157.23 196.852 157.671 194.918 157.69 193.463C157.708 192.009 158.142 189.041 158.653 186.868C159.165 184.696 159.432 182.674 159.248 182.376C159.063 182.077 159.175 181.475 159.494 181.036C159.814 180.598 160.152 178.793 160.245 177.027C160.337 175.26 160.812 173.177 161.299 172.398C161.787 171.619 162.557 169.345 163.009 167.344C163.462 165.344 163.998 163.423 164.199 163.076C164.401 162.729 164.649 161.684 164.751 160.754C164.853 159.824 165.542 157.168 166.282 154.852C167.023 152.536 167.629 149.585 167.629 148.295C167.629 147.004 167.908 145.034 168.249 143.917C168.589 142.8 169.315 140.348 169.861 138.468C171.306 133.491 173.638 130.21 178.182 126.757C180.393 125.077 182.459 123.702 182.775 123.702C183.09 123.702 183.756 123.211 184.255 122.611C184.753 122.01 187.536 119.856 190.439 117.823C198.543 112.149 213.679 97.5628 215.924 93.2641C216.393 92.3662 218.018 90.1444 219.536 88.326C221.055 86.5075 223.012 83.8295 223.885 82.3748C224.758 80.9201 225.717 79.628 226.015 79.5037C226.313 79.3794 227.124 78.1891 227.818 76.8587C228.511 75.5283 229.911 73.5624 230.927 72.4892C233.264 70.0235 240.662 57.1174 242.401 52.4701C244.786 46.1024 245.359 40.4151 244.444 32.2163C243.378 22.668 243.163 22.0795 238.763 16.6381C234.198 10.9918 231.158 9.02328 220.566 4.85151C208.103 -0.0562289 205.347 -0.810044 205.347 0.690974ZM222.882 18.6939C225.037 20.1169 226.729 21.9168 227.733 23.8549C229.096 26.4853 229.232 27.4441 228.904 32.1204C228.394 39.3981 227.022 44.1167 222.949 52.6189C216.439 66.2061 210.401 74.2805 196.97 87.3599C190.304 93.8513 186.143 97.6534 175.681 106.812L174.138 108.163L174.503 106.51C178.331 89.1314 185.07 66.8303 190.255 54.3765C193.471 46.6552 203.9 25.7719 204.996 24.862C205.444 24.4897 206.674 23.0178 207.729 21.5908C209.928 18.6172 216.89 14.9983 218.581 15.9498C219.127 16.2566 221.062 17.4918 222.882 18.6939ZM958.307 38.477C957.153 39.6295 956.998 40.2934 957.419 42.2791C958.233 46.1275 958.015 48.6422 955.831 60.5538C952.727 77.4829 953.122 76.5784 948.603 77.1054C946.52 77.3487 938.563 78.4166 930.92 79.4786C923.278 80.5412 911.218 81.699 904.121 82.0514C897.024 82.4046 890.394 82.8377 889.389 83.0149C887.775 83.2992 887.6 83.1637 887.895 81.8643C889.77 73.6094 889.773 73.7139 887.536 64.8288C886.337 60.0632 880.682 56.4865 871.697 54.8096C866.707 53.8786 859.124 54.4565 858.108 55.8451C857.677 56.435 857.123 56.917 856.877 56.917C856.182 56.917 847.91 65.3743 843.942 70.1418C841.975 72.5058 839.094 76.3998 837.541 78.7955L834.716 83.1511L830.212 82.5599C824.484 81.8088 818.645 80.323 814.588 78.5839C810.453 76.8124 808.652 73.6305 809.263 69.1784C809.756 65.5832 808.387 63.5294 805.498 63.5294C802.724 63.5294 801.351 67.0181 801.438 73.8388C801.557 83.12 803.723 90.7825 807.456 95.1282C809.267 97.2382 819.285 101.73 823.392 102.275C826.1 102.634 826.742 102.947 826.497 103.792C826.328 104.378 825.361 107.535 824.349 110.808C822.699 116.146 822.504 117.782 822.459 126.678C822.403 137.688 822.722 139.242 827.543 151.404L830.266 158.277L828.706 160.992C825.136 167.203 818.291 181.133 817.299 184.206C816.713 186.024 815.859 188.554 815.404 189.827C814.947 191.099 813.846 194.224 812.956 196.77C812.066 199.315 810.664 203.184 809.84 205.366C809.016 207.548 807.671 211.714 806.851 214.623C806.031 217.533 804.758 221.401 804.023 223.219C803.287 225.038 801.431 230.245 799.9 234.791C796.341 245.352 792.654 254.114 788.725 261.349C785.271 267.711 784.036 269.126 782.913 268.004C781.66 266.752 779.8 260.335 780.163 258.518C780.356 257.559 780.184 256.16 779.783 255.41C779.284 254.48 779.27 253.913 779.737 253.624C780.579 253.105 780.376 244.547 779.508 243.957C779.166 243.725 779.095 243.197 779.35 242.785C779.605 242.373 779.908 240.331 780.024 238.248C780.139 236.165 780.455 232.707 780.726 230.565C781.084 227.726 781.013 226.795 780.468 227.132C779.325 227.838 779.574 226.127 780.813 224.759C781.837 223.628 781.827 223.549 780.648 223.53C779.492 223.511 779.481 223.455 780.521 222.849C781.423 222.323 781.525 221.845 781.017 220.511C780.207 218.382 780.187 213.167 780.987 212.673C781.321 212.467 781.58 210.716 781.563 208.784C781.545 206.851 781.868 204.641 782.279 203.873C782.69 203.106 783.026 201.341 783.026 199.952C783.026 198.563 783.621 195.35 784.347 192.811C785.074 190.273 785.855 186.257 786.082 183.887C786.31 181.517 786.907 177.953 787.408 175.967C787.91 173.981 788.32 170.801 788.32 168.9C788.32 166.998 788.738 163.565 789.249 161.269C790.407 156.071 790.271 152.86 788.799 150.615C788.171 149.659 787.658 148.6 787.658 148.264C787.658 147.497 782.819 145.523 780.939 145.523C780.17 145.523 778.416 145.187 777.042 144.775C773.815 143.809 771.115 144.457 771.115 146.197C771.115 147.77 771.223 147.761 768.129 146.469C763.197 144.41 747.294 144.848 747.294 147.042C747.294 147.368 745.692 149.466 743.735 151.703C739.666 156.356 735.201 163.096 732.081 169.298C728.891 175.638 725.457 184.876 725.457 187.117C725.457 188.201 725.159 189.271 724.795 189.496C724.431 189.721 724.133 191.47 724.133 193.385C724.133 196.361 723.177 200.565 721.634 204.374C721.413 204.919 721.21 205.698 721.184 206.102C721.157 206.508 720.826 207.252 720.448 207.755C720.07 208.26 719.379 209.559 718.914 210.643L718.068 212.614L719.6 211.304C721.13 209.997 721.131 209.997 720.18 211.317C719.656 212.044 718.619 213.143 717.876 213.759C717.132 214.374 716.52 215.118 716.516 215.412C716.505 216.188 714.989 220.043 713.081 224.147C712.168 226.112 710.883 229.534 710.226 231.751C708.579 237.309 706.927 241.654 706.307 242.057C706.022 242.243 705.632 243.288 705.441 244.379C705.03 246.737 703.827 250.272 702.554 252.863C702.049 253.893 701.635 255.274 701.635 255.933C701.635 256.593 701.227 257.288 700.727 257.479C699.952 257.777 696.713 263.485 697.011 264.028C697.192 264.358 693.593 271.358 691.303 275.127C689.425 278.217 688.722 280.041 688.45 282.519C688.423 282.765 688.029 283.368 687.574 283.859C685.831 285.736 683.818 288.949 681.504 293.539C680.184 296.159 678.069 299.448 676.804 300.846C675.54 302.246 674.505 303.667 674.505 304.006C674.505 304.839 670.49 308.558 669.045 309.064C668.408 309.287 667.887 310.083 667.887 310.834C667.887 311.584 667.433 312.372 666.878 312.585C666.324 312.798 664.462 314.392 662.743 316.128C660.255 318.638 653.863 322.736 652.434 322.736C651.847 322.736 651.222 316.247 651.353 311.503C651.745 297.331 652.338 287.563 653.022 284.053C653.492 281.639 653.441 281.488 652.441 282.316C650.864 283.622 651.085 282.179 652.684 280.733C653.473 280.02 653.749 279.353 653.355 279.11C652.988 278.883 652.497 277.745 652.264 276.581C651.927 274.895 652.059 274.465 652.916 274.465C653.508 274.465 653.991 274.001 653.991 273.435C653.991 272.786 653.685 272.588 653.164 272.9C652.023 273.585 654.02 271.053 655.48 269.964C656.117 269.49 656.614 268.746 656.586 268.311C656.548 267.743 656.447 267.734 656.223 268.279C655.825 269.25 653.194 268.592 653.523 267.604C653.659 267.195 654.341 266.758 655.039 266.632C657.103 266.258 657.571 265.345 655.531 265.672C654.468 265.844 653.967 265.736 654.371 265.425C655.724 264.382 655.954 262.66 654.782 262.351C653.982 262.14 654.088 262.033 655.149 261.979C655.968 261.936 656.638 261.614 656.638 261.261C656.638 260.909 656.222 260.78 655.713 260.976C655.204 261.171 654.59 261.013 654.35 260.624C654.097 260.216 654.457 259.918 655.205 259.918C655.916 259.918 656.674 259.457 656.891 258.892C657.117 258.303 657.006 258.038 656.631 258.27C656.271 258.492 655.977 258.383 655.977 258.028C655.977 257.674 656.293 257.278 656.681 257.149C657.704 256.808 658.344 251.322 657.362 251.322C656.935 251.322 657.194 250.671 657.936 249.875C659.404 248.299 659.662 247.355 658.623 247.355C658.259 247.355 657.962 247.67 657.962 248.055C657.962 248.44 657.664 248.571 657.3 248.346C656.239 247.691 656.536 246.694 657.796 246.683C658.705 246.675 658.76 246.55 658.049 246.1C657.319 245.637 657.414 245.257 658.545 244.126C659.316 243.356 659.981 242.354 660.023 241.899C660.16 240.417 660.339 239.778 661.141 237.889C662.097 235.639 662.181 234.043 661.27 235.452C660.804 236.173 660.626 236.207 660.618 235.578C660.613 235.102 660.283 234.914 659.885 235.16C659.486 235.406 659.285 236.258 659.437 237.052C659.589 237.847 659.32 238.866 658.838 239.315C658.356 239.765 657.937 240.047 657.907 239.941C657.133 237.256 658.754 232.462 660.243 233.033C661.4 233.476 662.645 232.562 662.891 231.088C663.006 230.397 663.373 229.887 663.707 229.953C664.599 230.131 664.744 225.713 663.864 225.17C663.327 224.839 663.367 224.55 664.006 224.156C664.497 223.853 664.9 223.072 664.904 222.42C664.907 221.768 665.271 221.306 665.713 221.393C666.155 221.48 666.358 221.138 666.164 220.633C665.97 220.129 666.13 219.52 666.519 219.28C667.788 218.496 667.332 216.276 665.902 216.276C665.174 216.276 664.579 215.961 664.579 215.576C664.579 215.191 664.873 215.058 665.233 215.28C665.608 215.511 665.719 215.246 665.493 214.657C665.206 213.91 665.523 213.629 666.659 213.621C667.915 213.613 668.025 213.484 667.226 212.96C666.344 212.381 666.344 212.235 667.226 211.647C668.108 211.06 668.108 210.914 667.226 210.335C666.503 209.861 666.469 209.681 667.099 209.674C667.576 209.668 667.801 209.397 667.6 209.072C667.398 208.746 667.681 208.308 668.228 208.099C668.775 207.888 669.185 207.486 669.139 207.203C669.092 206.92 669.112 206.539 669.183 206.358C669.254 206.176 669.411 205.581 669.532 205.035C669.652 204.49 670.219 202.95 670.792 201.614C671.59 199.753 671.643 199.108 671.018 198.854C670.398 198.603 670.421 198.371 671.115 197.886C671.617 197.535 671.839 196.943 671.608 196.569C671.377 196.196 671.496 195.788 671.872 195.663C672.248 195.538 672.729 193.652 672.942 191.474C673.154 189.295 673.716 186.758 674.19 185.836C675.076 184.114 675.824 180.842 675.997 177.924C676.051 177.015 676.314 176.116 676.582 175.927C676.85 175.737 677.228 173.435 677.42 170.811C677.613 168.187 678.202 165.367 678.73 164.543C679.257 163.72 680 161.261 680.379 159.079C681.469 152.823 682.245 149.407 683.364 145.961C683.935 144.202 685.017 139.441 685.769 135.381C686.521 131.322 687.683 126.215 688.352 124.033C689.02 121.851 690.082 118.131 690.713 115.767C691.343 113.404 692.081 110.726 692.353 109.816C696.054 97.4306 697.858 86.8818 697.885 77.479C697.904 70.8619 697.656 69.0409 696.077 64.1907C692.442 53.0296 685.88 44.889 677.264 40.8521C673.619 39.1441 672.56 38.9359 669.109 39.2486C666.647 39.4721 664.648 40.056 663.836 40.7893C663.118 41.4393 662.115 42.0318 661.606 42.1065C660.284 42.3003 654.654 47.126 655.034 47.7403C655.414 48.3546 652.621 50.0083 651.675 49.7286C651.311 49.6209 651.231 49.7511 651.498 50.0169C651.765 50.2834 648.158 54.438 643.483 59.2485C634.596 68.3962 628.184 75.7379 628.184 76.7668C628.184 77.0994 626.249 79.5189 623.883 82.144C621.518 84.7685 619.582 87.3354 619.582 87.8485C619.582 88.3617 618.255 90.5246 616.633 92.6551C615.012 94.7856 613.099 97.6786 612.381 99.0844C611.663 100.49 610.608 102.028 610.035 102.502C609.463 102.977 608.995 103.624 608.995 103.939C608.995 104.647 607.308 106.722 604.693 109.229C603.602 110.276 603.083 111.134 603.541 111.135C604.132 111.138 604.192 111.475 603.746 112.296C603.401 112.933 602.939 114.303 602.718 115.342C602.49 116.416 601.778 117.37 601.065 117.557C600.377 117.737 599.5 118.784 599.116 119.885C598.731 120.986 597.641 122.553 596.693 123.368C595.744 124.182 594.761 125.855 594.51 127.086C594.257 128.317 593.716 129.323 593.307 129.323C592.897 129.323 592.314 129.594 592.01 129.925C591.69 130.274 591.806 130.327 592.286 130.051C592.798 129.757 593.113 129.969 593.113 130.606C593.113 131.173 592.649 131.637 592.082 131.637C591.493 131.637 591.245 131.953 591.505 132.373C591.755 132.777 591.678 133.298 591.335 133.53C590.707 133.953 587.446 139.851 580.681 152.797C578.685 156.616 576.838 159.98 576.575 160.274C576.312 160.568 576.356 159.159 576.672 157.145C577.344 152.861 576.402 136.021 575.421 134.786C575.056 134.327 574.397 132.833 573.957 131.467C572.777 127.808 567.232 122.096 562.8 119.976C559.827 118.554 558.099 118.18 554.585 118.198C552.138 118.211 549.756 118.51 549.292 118.861C548.827 119.213 547.759 119.537 546.917 119.58C546.075 119.623 544.456 120.569 543.318 121.681C542.18 122.793 541.053 123.702 540.815 123.702C540.073 123.702 537.171 126.589 535.964 128.526C535.331 129.542 534.126 130.635 533.286 130.954C532.364 131.305 531.61 132.273 531.381 133.404C531.173 134.432 530.446 135.869 529.766 136.597C529.085 137.324 528.351 138.385 528.133 138.955C527.916 139.526 525.891 142.799 523.635 146.229C519.298 152.823 513.333 164.545 513.983 165.196C514.195 165.408 514.369 165.184 514.369 164.699C514.369 164.215 514.535 163.984 514.739 164.187C515.34 164.788 513.131 169.459 512.445 169.035C511.643 168.54 510.82 171.05 511.451 172.07C511.735 172.529 511.639 172.661 511.212 172.398C510.764 172.12 509.04 175.708 506.575 182.049C504.418 187.599 502.401 192.736 502.094 193.463C501.71 194.373 501.368 192.617 500.999 187.843C500.704 184.024 500.188 179.412 499.853 177.594C498.873 172.275 498.453 147.782 499.212 140.207C499.593 136.403 500.029 127.212 500.182 119.784C500.438 107.327 500.351 105.982 499.074 102.482C497.74 98.8252 497.518 98.601 492.96 96.3098C487.996 93.8143 482.447 92.5989 481.68 93.8394C481.438 94.2302 480.87 94.4081 480.417 94.2342C479.964 94.0609 478.515 95.0409 477.196 96.4123L474.798 98.9058L473.905 110.478C471.014 147.975 475.175 239.687 481 266.807C481.553 269.382 482.143 272.146 482.311 272.949C482.51 273.897 483.631 274.856 485.513 275.688C489.371 277.394 493.856 278.151 493.856 277.097C493.856 276.554 494.428 276.462 495.675 276.802C500.724 278.176 503.437 276.03 503.995 270.222C504.202 268.069 504.104 265.81 503.778 265.201C503.126 263.984 502.767 237.17 503.353 233.468C506.365 214.454 508.581 206.459 515.178 190.818C517.172 186.091 519.178 181.032 519.636 179.577C520.094 178.123 522.223 173.282 524.367 168.82C526.511 164.357 528.265 160.325 528.265 159.86C528.265 159.394 528.637 158.641 529.092 158.186C529.547 157.731 529.939 157.151 529.963 156.897C530.173 154.66 539.477 141.44 544.545 136.179C553.257 127.132 558.222 124.864 560.341 128.959C562.438 133.011 561.766 137.936 554.65 170.651C548.127 200.643 544.766 228.416 546.094 241.35C546.467 244.985 546.624 248.347 546.442 248.821C545.806 250.477 548.987 255.579 551.094 256.283C552.186 256.647 554.265 257.762 555.714 258.762C558.395 260.611 561.351 261.178 561.351 259.843C561.351 259.35 562.292 259.248 564.2 259.533C566.525 259.882 567.456 259.683 569.27 258.452C572.644 256.161 573.876 253.169 573.982 247.015C574.054 242.841 574.81 239.101 577.589 229.17C582.672 211.01 586.836 197.883 590.273 189.183C591.929 184.991 593.295 181.189 593.309 180.734C593.322 180.28 593.582 179.908 593.886 179.908C594.189 179.908 594.437 179.536 594.437 179.081C594.437 178.627 595.306 176.42 596.368 174.178C597.43 171.935 598.14 169.942 597.946 169.749C597.752 169.555 598.744 167.373 600.151 164.899C601.558 162.425 603.155 159.351 603.701 158.068C604.247 156.785 606.256 152.861 608.167 149.349C610.078 145.837 611.641 142.535 611.641 142.01C611.641 141.486 612.088 140.686 612.634 140.233C613.18 139.78 613.627 139.023 613.627 138.55C613.627 138.077 614.321 136.849 615.171 135.821C616.021 134.793 617.175 133.059 617.737 131.968C620.236 127.112 624.896 118.853 625.647 117.95C626.101 117.403 626.537 116.514 626.617 115.973C626.696 115.433 627.23 114.472 627.803 113.839C628.377 113.206 628.846 112.391 628.846 112.029C628.846 111.666 629.618 110.648 630.562 109.766C631.506 108.885 633.858 105.783 635.789 102.873C637.721 99.9638 640.182 96.6907 641.258 95.5996C642.334 94.5086 643.714 92.6432 644.325 91.4543C644.936 90.2654 647.295 87.2898 649.568 84.8419C651.84 82.394 654.568 79.2008 655.63 77.7461C657.405 75.3174 663.924 68.6719 667.072 66.0844C667.796 65.4887 668.5 64.7448 668.635 64.4313C668.983 63.6207 676.108 58.9007 676.983 58.9007C679.958 58.9007 679.714 76.3562 676.545 90.3097C675.471 95.0376 673.374 103.22 671.887 108.494C670.399 113.767 668.284 121.653 667.186 126.017C666.089 130.381 664.016 137.82 662.579 142.548C661.143 147.276 659.256 153.822 658.386 157.095C657.516 160.368 656.001 165.724 655.021 168.997C652.64 176.946 651.595 180.84 650.674 185.198C650.251 187.198 649.509 189.727 649.025 190.818C648.541 191.909 647.939 193.918 647.687 195.282C647.434 196.646 646.93 197.761 646.568 197.761C646.206 197.761 646.081 198.208 646.29 198.753C646.499 199.299 646.447 199.745 646.174 199.745C645.9 199.745 645.28 201.902 644.795 204.539C644.31 207.176 643.779 209.928 643.614 210.656C643.449 211.383 643.154 213.02 642.959 214.292C642.765 215.565 642.171 217.797 641.64 219.252C640.363 222.757 639.592 225.432 639.164 227.848C638.132 233.676 635.043 243.378 634.142 243.624C633.379 243.832 633.413 243.913 634.289 243.972C635.247 244.036 635.323 244.331 634.761 245.807C634.393 246.774 634.164 248.039 634.252 248.617C634.339 249.195 634.002 250.413 633.502 251.322C632.435 253.263 632.437 253.32 633.587 254.048C634.169 254.417 634.206 254.612 633.695 254.618C632.603 254.632 631.347 258.822 631.289 262.643C631.262 264.417 630.95 265.869 630.594 265.869C630.24 265.869 630.136 266.056 630.363 266.284C630.592 266.512 630.394 267.479 629.924 268.433C629.454 269.387 629.01 271.358 628.937 272.812C628.865 274.267 628.646 276.052 628.452 276.78C628.165 277.854 628.229 277.916 628.792 277.11C629.395 276.25 629.489 276.267 629.498 277.237C629.503 277.852 629.205 278.542 628.836 278.77C628.466 278.999 628.321 279.442 628.515 279.755C628.709 280.069 628.565 280.512 628.195 280.741C627.37 281.25 627.297 283.723 628.107 283.723C629.234 283.723 629.35 286.288 628.276 287.479C627.142 288.737 626.685 290.855 626.588 295.295C626.556 296.749 626.232 298.162 625.868 298.435C625.427 298.766 625.427 299.097 625.868 299.427C626.245 299.71 626.535 303.389 626.541 307.966C626.549 314.512 626.755 316.234 627.647 317.223C628.25 317.891 628.948 319.259 629.199 320.262C629.45 321.266 629.965 322.279 630.345 322.514C630.78 322.782 630.839 322.597 630.506 322.012C630.091 321.287 630.16 321.254 630.817 321.859C631.455 322.449 631.487 323.125 630.948 324.67C630.521 325.894 630.488 326.704 630.866 326.704C631.21 326.704 631.498 327.373 631.503 328.191C631.51 329.191 631.687 329.406 632.043 328.845C632.438 328.224 632.954 328.417 634.073 329.608C635.443 331.065 635.476 331.259 634.453 331.831C633.419 332.409 633.428 332.494 634.564 332.93C635.24 333.189 635.943 333.411 636.125 333.424C637.18 333.496 638.75 334.8 638.42 335.333C638.207 335.679 638.273 335.962 638.567 335.962C638.862 335.962 639.96 336.699 641.006 337.599C642.054 338.499 644.585 339.864 646.631 340.633C649.863 341.848 651.155 341.972 656.46 341.581C662.172 341.159 662.837 340.951 666.717 338.384C668.998 336.875 671.017 335.438 671.203 335.192C672.358 333.656 675.819 329.448 677.648 327.353C678.83 325.999 679.798 324.728 679.798 324.531C679.798 324.139 681.918 321.504 684.235 319.014C685.037 318.152 685.532 317.446 685.334 317.446C685.136 317.446 685.762 316.511 686.724 315.368C687.687 314.225 689.236 311.771 690.167 309.913C691.098 308.055 692.246 306.089 692.717 305.544C693.855 304.227 697.003 298.251 697.003 297.407C697.003 297.042 697.752 295.76 698.668 294.561C699.584 293.361 700.912 291.102 701.62 289.539C702.328 287.977 703.808 285.211 704.909 283.392C706.01 281.574 707.096 279.64 707.322 279.094C707.548 278.549 708.715 276.019 709.915 273.474C711.115 270.928 712.313 268.101 712.578 267.192C712.842 266.283 714.195 263.269 715.585 260.495C716.974 257.721 718.313 253.928 718.56 252.065C718.808 250.201 719.242 248.677 719.525 248.677C719.808 248.677 719.874 248.044 719.671 247.271C719.433 246.362 719.689 245.649 720.395 245.254C720.996 244.919 721.487 244.38 721.487 244.058C721.487 243.737 721.806 242.635 722.195 241.612C722.584 240.588 722.909 239.601 722.917 239.42C722.925 239.238 723.335 238.345 723.828 237.436C724.758 235.725 726.78 227.913 726.78 226.035C726.78 225.447 727.212 224.536 727.739 224.008C728.267 223.481 728.838 222.196 729.008 221.151C729.179 220.106 729.378 219.103 729.451 218.921C729.525 218.739 729.549 218.368 729.505 218.095C729.315 216.891 730.956 217.786 732.813 219.899C733.924 221.165 736.737 223.137 739.063 224.281C742.676 226.058 743.826 226.317 746.952 226.058C749.496 225.847 751.078 225.317 752.139 224.322C752.978 223.533 753.944 222.889 754.284 222.889C754.625 222.889 755.797 221.825 756.889 220.525L758.874 218.161L758.654 230.939C758.473 241.451 758.676 245.198 759.795 252.063C762.848 270.773 768.518 280.926 777.648 284.035C781.715 285.42 782.881 285.32 783.221 283.558L783.508 282.07L783.598 283.558C783.819 287.21 790.166 283.03 795.268 275.871C796.36 274.339 797.924 272.162 798.742 271.033C799.561 269.904 800.231 268.459 800.231 267.822C800.231 267.185 801.248 265.154 802.491 263.308C803.734 261.463 804.962 258.978 805.22 257.786C805.478 256.595 806.545 253.917 807.592 251.837C808.639 249.756 809.495 247.718 809.495 247.308C809.495 246.898 810.686 243.61 812.142 240.002C813.598 236.393 814.789 232.472 814.789 231.288C814.789 230.103 815.24 228.49 815.792 227.702C816.345 226.915 817.351 223.204 818.029 219.455C818.708 215.706 819.876 211.003 820.625 209.003C822.987 202.698 824.872 196.202 825.119 193.517C825.251 192.092 825.571 190.307 825.831 189.549C826.091 188.793 826.338 188.025 826.38 187.843C826.422 187.661 826.923 186.471 827.493 185.198C828.838 182.193 830.677 176.518 830.673 175.385C830.671 174.898 831.255 174.005 831.97 173.401C832.684 172.798 833.809 170.818 834.47 169.003C835.155 167.119 836.14 165.612 836.764 165.492C837.365 165.376 839.002 166.038 840.401 166.963C841.801 167.889 845.022 169.128 847.56 169.718C856.813 171.865 859.162 172.708 861.417 174.686C864.166 177.099 864.908 180.091 863.87 184.586C863.227 187.371 859.472 197.034 856.824 202.721C856.316 203.812 855.693 205.746 855.44 207.019C855.187 208.292 854.274 210.876 853.413 212.762C852.55 214.648 851.845 216.74 851.845 217.409C851.845 218.079 851.381 219.289 850.814 220.097C850.247 220.907 849.965 221.862 850.187 222.221C850.409 222.58 850.146 223.844 849.603 225.03C848.313 227.847 845.892 236.114 842.874 248.016C841.537 253.289 840.182 257.928 839.863 258.326C839.544 258.723 839.473 259.237 839.704 259.468C839.936 259.699 839.636 261.169 839.038 262.733C837.989 265.478 837.169 270.071 837.239 272.812C837.258 273.54 836.845 276.069 836.32 278.433C835.487 282.197 835.233 285.18 835.195 291.658C835.19 292.567 834.88 293.679 834.507 294.129C834.03 294.705 834.097 295.051 834.731 295.295C835.845 295.724 836.275 300.736 835.298 301.912C834.716 302.612 834.701 307.237 835.26 313.148C835.294 313.512 835.574 313.412 835.882 312.927C836.308 312.256 836.528 312.375 836.803 313.424C837.001 314.182 836.894 314.637 836.564 314.432C835.018 313.477 836.239 317.658 838.712 321.786C841.754 326.863 846.507 331.791 848.953 332.405C852.155 333.207 859.377 332.34 862.342 330.796C865.208 329.303 870.452 324.094 873.269 319.942C875.476 316.689 881.358 305.62 882.676 302.238C883.314 300.601 884.791 297.75 885.957 295.904C887.124 294.056 888.302 291.824 888.576 290.944C888.849 290.063 889.789 287.919 890.665 286.178C891.541 284.436 892.052 282.679 891.8 282.273C891.538 281.848 891.641 281.719 892.045 281.968C892.461 282.224 893.178 281.137 893.804 279.3C894.589 277 894.664 276.077 894.094 275.725C893.562 275.397 893.978 274.268 895.449 272.049C896.616 270.287 897.435 268.325 897.269 267.688C897.102 267.052 897.185 266.531 897.453 266.531C897.72 266.531 898.631 265.054 899.478 263.249C900.821 260.383 900.898 259.818 900.086 258.785C899.241 257.709 899.261 257.684 900.316 258.511C901.34 259.314 901.474 259.257 901.474 258.015C901.474 257.243 901.737 256.612 902.058 256.612C902.38 256.612 902.799 256.017 902.989 255.289C903.179 254.562 903.065 253.967 902.735 253.967C902.406 253.967 902.136 253.521 902.136 252.975C902.136 252.43 902.451 251.983 902.836 251.983C903.221 251.983 903.325 252.327 903.065 252.747C902.77 253.224 902.884 253.33 903.37 253.031C903.797 252.767 904.879 251.105 905.775 249.338C906.671 247.571 907.674 245.959 908.004 245.756C908.333 245.552 908.81 244.267 909.063 242.898C909.315 241.53 910.412 238.539 911.502 236.25C913.231 232.613 913.663 232.142 914.921 232.522C916.11 232.88 916.215 232.801 915.518 232.071C914.828 231.348 914.949 230.972 916.18 230.017C917.228 229.205 917.451 228.696 916.912 228.343C916.107 227.815 917.66 224.123 921.016 218.591C921.899 217.136 923.13 214.977 923.752 213.793C924.543 212.288 925.041 211.89 925.41 212.471C925.768 213.033 925.94 212.846 925.948 211.888C925.953 211.112 926.402 209.624 926.946 208.582C927.489 207.541 927.936 207.06 927.939 207.515C927.941 207.97 928.446 208.341 929.062 208.341C930.073 208.341 930.081 208.421 929.136 209.168C928.561 209.623 927.918 211.185 927.707 212.639C927.497 214.094 927.489 214.911 927.69 214.454C927.891 213.997 928.288 213.767 928.572 213.942C929.349 214.421 928.567 217.599 927.672 217.599C927.244 217.599 926.849 218.417 926.794 219.417C926.629 222.396 925.975 225.609 924.608 230.162C922.162 238.303 919.876 248.351 919.964 250.569C920.013 251.791 919.627 254.32 919.107 256.189C918.587 258.058 917.967 261.522 917.73 263.886C917.493 266.25 917.008 269.82 916.654 271.82C916.3 273.821 915.739 278.284 915.409 281.739C915.079 285.194 914.649 288.467 914.453 289.013C913.822 290.774 912.398 303.836 911.821 313.148C911.64 316.058 911.208 319.926 910.86 321.744C910.512 323.563 910.314 331.448 910.419 339.267C910.626 354.65 911.058 357.166 914.743 364.463C917.036 369.002 922.185 373.767 926.047 374.923C929.943 376.089 936.627 375.973 939.33 374.69C941.757 373.54 950.441 365.969 950.441 365.005C950.441 364.671 951.813 362.538 953.491 360.264C956.901 355.64 960.398 349.022 962.839 342.573C965.065 336.692 971.024 314.789 970.59 314.086C970.396 313.774 970.67 312.685 971.196 311.666C971.723 310.648 972.465 308.137 972.844 306.087C973.223 304.036 974.144 301.219 974.891 299.828C975.637 298.436 976.248 296.644 976.248 295.846C976.248 294.179 981.841 278.837 983.25 276.638C983.767 275.832 984.189 274.708 984.189 274.139C984.189 273.571 985.087 271.328 986.184 269.156C988.746 264.085 990.85 258.742 991.119 256.624C991.237 255.708 992.581 251.388 994.107 247.024C995.633 242.66 997.129 238.085 997.432 236.859C997.735 235.633 998.303 234.308 998.695 233.917C999.087 233.525 999.408 232.658 999.408 231.992C999.408 231.325 1000.15 229.311 1001.06 227.517C1001.97 225.723 1002.72 223.681 1002.72 222.981C1002.72 221.079 1007.59 209.17 1011.33 201.902C1013.15 198.389 1014.63 195.145 1014.63 194.693C1014.63 194.242 1014.91 193.697 1015.26 193.485C1015.64 193.247 1015.89 196.755 1015.89 202.538C1015.9 220.607 1019.54 229.872 1028.19 233.898C1032.04 235.692 1033.95 235.812 1037.69 234.496C1040.92 233.356 1048.38 228.237 1048.38 227.157C1048.38 226.738 1050.43 224.061 1052.95 221.208C1055.96 217.795 1059.24 212.907 1062.54 206.914C1065.31 201.905 1067.57 197.532 1067.57 197.195C1067.57 196.859 1068.18 195.286 1068.93 193.701L1070.3 190.818L1069.86 198.092C1069.62 202.093 1069.22 208.341 1068.98 211.978C1068.74 215.615 1068.75 223.141 1069.01 228.701C1069.41 237.342 1069.7 239.26 1071 241.896C1073.88 247.709 1080.72 249.519 1085.62 245.767C1087.78 244.119 1091.34 238.342 1091.41 236.381C1091.42 236.052 1092.16 234.295 1093.06 232.477C1093.95 230.658 1094.69 228.641 1094.69 227.993C1094.69 227.346 1095.44 225.059 1096.34 222.91C1097.25 220.763 1099.45 214.561 1101.25 209.129C1103.84 201.281 1112.64 181.427 1116.53 174.618C1119.49 169.45 1124.01 162.742 1125.4 161.443L1127.12 159.84V162.452C1127.12 168.044 1125.53 177.207 1120.43 201.068C1113.01 235.763 1112.17 242.372 1113.98 251.707C1114.87 256.246 1115.5 257.269 1117.44 257.283C1118.58 257.292 1118.66 257.411 1117.86 257.919C1117.01 258.455 1117.06 258.685 1118.19 259.541C1120.59 261.352 1123.9 262.076 1128.22 261.73C1131.72 261.449 1133.06 260.96 1136.15 258.836C1138.2 257.431 1140.34 255.537 1140.92 254.628C1141.5 253.719 1142.13 252.826 1142.32 252.644C1142.51 252.463 1142.97 251.838 1143.33 251.256C1143.7 250.673 1144.87 248.888 1145.94 247.288C1147.01 245.688 1148.73 242.742 1149.76 240.742C1150.79 238.742 1152.51 235.915 1153.58 234.46C1154.65 233.006 1155.54 230.98 1155.55 229.958C1155.56 228.892 1155.86 228.274 1156.24 228.509C1156.6 228.734 1156.9 228.329 1156.9 227.611C1156.9 225.705 1157.61 224.163 1158.29 224.585C1158.62 224.786 1158.88 224.635 1158.88 224.25C1158.88 223.865 1158.57 223.55 1158.18 223.55C1157.8 223.55 1157.67 223.248 1157.9 222.878C1158.13 222.508 1158.64 222.405 1159.03 222.649C1159.46 222.916 1159.56 222.785 1159.27 222.323C1159.01 221.9 1159.41 220.772 1160.16 219.817C1160.91 218.863 1161.53 217.24 1161.53 216.21C1161.53 214.476 1163.48 212.495 1164.34 213.356C1164.53 213.543 1164.61 212.848 1164.52 211.813C1164.4 210.422 1164.66 209.908 1165.53 209.844C1166.37 209.779 1166.82 210.423 1167.14 212.19C1168.16 217.662 1172.78 223.716 1176.63 224.631C1177.61 224.861 1178.93 225.512 1179.59 226.078C1180.25 226.659 1182.46 227.228 1184.65 227.386C1189.36 227.727 1193.93 226.346 1198.68 223.158C1200.52 221.919 1202.22 220.898 1202.46 220.889C1202.69 220.88 1204.23 219.844 1205.86 218.588C1207.5 217.331 1210.13 215.377 1211.69 214.246C1214.84 211.982 1223.59 203.326 1226.71 199.4C1227.8 198.026 1230.18 195.339 1232 193.428C1239.37 185.695 1240.5 184.256 1245.22 176.65C1245.57 176.078 1246.54 174.553 1247.37 173.26C1248.2 171.968 1248.88 170.48 1248.89 169.954C1248.9 169.428 1249.79 167.835 1250.87 166.414C1251.94 164.993 1253 162.891 1253.22 161.742L1253.61 159.653L1262.66 159.921C1269.05 160.111 1273.07 159.901 1276.34 159.209C1278.88 158.669 1281.06 158.315 1281.18 158.422C1281.58 158.789 1272.23 167.76 1264.7 174.246C1250.45 186.515 1246.85 190.208 1245.83 193.581C1244.14 199.181 1244.95 202.615 1248.7 205.783C1249.71 206.645 1254.86 212.651 1260.13 219.129C1274.31 236.549 1274.66 237.013 1274.67 238.184C1274.68 238.777 1272.52 242.118 1269.89 245.61C1263.34 254.273 1261.29 257.15 1260.1 259.386C1259.53 260.435 1258.91 261.132 1258.72 260.936C1258.52 260.74 1258.36 260.993 1258.36 261.499C1258.36 262.004 1257.7 263.269 1256.9 264.309C1255.59 266 1245.41 281.511 1239.78 290.398C1238.59 292.264 1237.63 294.189 1237.63 294.675C1237.63 295.162 1237.18 295.81 1236.63 296.115C1235.44 296.785 1232.99 301.403 1232.99 302.999C1232.99 303.629 1232.73 304.305 1232.41 304.504C1232.09 304.701 1230.99 306.876 1229.97 309.337C1228.95 311.797 1227.32 315.033 1226.34 316.528C1225.36 318.022 1223.89 321.295 1223.06 323.801C1222.24 326.307 1220.25 331.908 1218.64 336.249C1212.48 352.891 1210.55 364.597 1211.78 377.779C1213 390.892 1216.91 402.41 1222.09 408.141C1223.36 409.541 1224.39 410.968 1224.39 411.313C1224.39 411.659 1225.73 413.262 1227.37 414.875C1229.01 416.489 1230.35 418.288 1230.35 418.874C1230.35 419.498 1230.9 419.939 1231.67 419.939C1232.4 419.939 1232.99 420.236 1232.99 420.6C1232.99 420.964 1233.45 421.261 1234.01 421.261C1234.57 421.261 1235.84 421.834 1236.83 422.534C1238.86 423.981 1246.77 426.196 1252.19 426.836C1254.93 427.16 1256.15 427.02 1257.15 426.269C1257.88 425.72 1259.36 425.254 1260.46 425.234C1261.55 425.214 1264.23 424.43 1266.41 423.491C1268.6 422.553 1272.17 421.031 1274.35 420.109C1278.27 418.455 1284.79 414.257 1288.12 411.24C1289.06 410.387 1290.67 409.02 1291.69 408.202C1297.21 403.771 1298.41 402.576 1299.17 400.766C1299.62 399.673 1300.19 398.779 1300.44 398.779C1301.71 398.779 1307.22 392.375 1308.67 389.206C1309.58 387.208 1311.1 384.574 1312.03 383.352C1312.96 382.131 1313.72 380.857 1313.72 380.523C1313.72 380.188 1314.33 378.782 1315.07 377.399C1316.63 374.491 1322.66 353.909 1323.98 346.959C1325.1 341.078 1325.2 334.382 1324.37 318.769C1323.39 300.069 1322.38 295.144 1315.39 274.823C1313.02 267.928 1311.08 261.725 1311.08 261.039C1311.08 259.741 1309.59 256.754 1307.6 254.043C1306.97 253.175 1306.45 252.031 1306.45 251.501C1306.45 250.969 1305.89 249.744 1305.2 248.779C1304.52 247.813 1303.76 246.106 1303.52 244.985C1303.28 243.863 1301.89 241.36 1300.43 239.422C1298.97 237.484 1298.02 235.724 1298.31 235.51C1298.6 235.296 1298.93 234.682 1299.05 234.145C1299.48 232.18 1311.71 214.477 1316.13 209.423C1318.63 206.563 1320.97 203.736 1321.34 203.141C1321.71 202.546 1322.89 200.572 1323.95 198.753C1325.02 196.935 1327 194.257 1328.35 192.802C1329.69 191.347 1333.89 186.858 1337.68 182.825C1341.47 178.792 1346.46 173.139 1348.77 170.261C1351.08 167.384 1355.45 162.501 1358.47 159.409C1362.23 155.567 1364.29 152.874 1364.98 150.895C1365.54 149.304 1366 147.742 1366 147.424C1366 146.627 1362.88 146.696 1361.33 147.529C1360.63 147.904 1352.83 155.391 1344.01 164.166C1335.18 172.942 1327.22 180.596 1326.3 181.177C1321.48 184.247 1309.67 196.207 1302.42 205.366C1299.54 209.003 1296.32 212.901 1295.28 214.027C1294.23 215.155 1292.84 216.94 1292.18 217.995C1291.52 219.05 1290.26 220.705 1289.38 221.673L1287.78 223.432L1283.42 218.697C1281.01 216.092 1276.16 211.135 1272.62 207.68C1269.08 204.225 1265.7 200.61 1265.11 199.647L1264.03 197.896L1269.83 191.813C1273.01 188.467 1278.16 183.934 1281.27 181.739C1284.38 179.544 1288.62 176.226 1290.7 174.365C1292.78 172.504 1295.61 170.044 1296.99 168.898C1298.37 167.752 1300.63 164.713 1302.01 162.146C1304.4 157.705 1304.49 157.34 1303.76 154.645C1302.65 150.508 1300.82 147.24 1298.55 145.335C1295.18 142.497 1286.77 141.44 1278.61 142.829C1267.69 144.689 1266.89 144.44 1271.07 140.501C1272.35 139.288 1275.32 135.088 1277.67 131.165C1280.02 127.243 1282.81 123.14 1283.87 122.049C1287.49 118.321 1293.84 109.087 1294.52 106.56C1294.89 105.173 1295.75 103.33 1296.42 102.464C1298.58 99.6762 1301.95 87.5351 1302.27 81.3829C1302.68 73.5518 1301.76 71.9629 1294.82 68.5436C1289.6 65.9661 1285.97 65.0635 1278.24 64.4221C1274.68 64.1265 1273.72 64.3242 1270.3 66.054C1264.59 68.9437 1260.16 72.4661 1256.96 76.6703C1255.4 78.7168 1253.29 81.3981 1252.27 82.6294L1250.42 84.8683L1248.96 82.5064C1247.38 79.952 1238.69 73.1234 1237.75 73.7013C1237.44 73.8957 1236.46 73.5459 1235.59 72.9243C1234.71 72.3034 1231.76 71.0087 1229.03 70.0473C1226.3 69.0858 1222.42 67.682 1220.42 66.9282C1218.42 66.1737 1215.68 65.5469 1214.34 65.535C1213 65.5231 1211.74 65.2592 1211.55 64.9491C1211.36 64.6383 1209.04 64.184 1206.41 63.9394C1203.78 63.6947 1199.67 63.0229 1197.29 62.4463C1194.63 61.8036 1189.13 61.3182 1183.03 61.1906C1177.58 61.0762 1172.36 60.8282 1171.45 60.6385C1168.49 60.0209 1158.62 59.3153 1155.57 59.5031C1152.12 59.7154 1150.8 59.7094 1139.87 59.435C1133.78 59.2823 1131.69 59.4403 1131.44 60.0698C1131.27 60.5307 1130.3 60.899 1129.29 60.8884C1122.97 60.8196 1108.06 61.4994 1107.06 61.9014C1106.4 62.1659 1105.55 62.0793 1105.18 61.7084C1104.72 61.2508 1103.41 61.3262 1101.09 61.9431C1099.21 62.4437 1096.11 62.8563 1094.2 62.8602C1092.29 62.8649 1090.73 63.1393 1090.73 63.4712C1090.73 64.1232 1088.64 64.024 1086.26 63.2576C1085.34 62.9634 1084.77 63.052 1084.77 63.4871C1084.77 63.8772 1083.95 64.1225 1082.95 64.0339C1080.54 63.819 1066.62 64.6786 1052.68 65.9033C1046.49 66.4468 1037.26 67.159 1032.16 67.4863C1027.07 67.8136 1016.79 68.8491 1009.33 69.7881C1001.87 70.7264 995.145 71.3446 994.382 71.1621C993.619 70.979 990.492 71.2692 987.434 71.8068C984.375 72.3451 980.742 72.7855 979.361 72.7861L976.85 72.7868L977.275 70.3071C977.509 68.9437 978.266 65.0278 978.959 61.6059C980.411 54.434 980.493 52.3101 979.498 47.6761C978.855 44.6768 978.487 44.1742 976.024 42.9377C974.51 42.1766 972.75 41.0968 972.113 40.5374C971.444 39.9495 969.63 39.4986 967.812 39.4682C965.619 39.4318 964.407 39.0622 963.803 38.2475C962.633 36.6658 960.009 36.7756 958.307 38.477ZM649.028 51.6271C648.804 51.9907 648.935 52.2883 649.32 52.2883C649.705 52.2883 650.021 51.9907 650.021 51.6271C650.021 51.2634 649.89 50.9658 649.729 50.9658C649.568 50.9658 649.253 51.2634 649.028 51.6271ZM870.308 68.2024C871.648 69.3166 871.947 70.2767 872.205 74.3004C872.424 77.7197 872.217 79.7781 871.476 81.5516L870.441 84.0279H861.13H851.818L853.139 81.4398C853.866 80.0161 855.216 78.008 856.139 76.9764C864.648 67.4671 865.325 66.8363 867 66.8574C867.945 66.87 869.434 67.475 870.308 68.2024ZM1175.09 69.1321C1189.43 69.5738 1203.97 70.9763 1212.81 72.7722C1217.96 73.817 1229.98 77.6476 1229.07 77.9511C1228.68 78.0794 1226.95 77.7322 1225.22 77.1788C1222.33 76.253 1215.78 74.9629 1201.23 72.4509C1195.97 71.5417 1168.14 69.5963 1157.41 69.3867C1153.58 69.312 1153.14 69.2108 1155.24 68.8908C1156.7 68.6699 1159.68 68.5694 1161.86 68.6673C1164.04 68.7658 1170 68.9747 1175.09 69.1321ZM1103.96 71.9794C1104.51 72.2042 1102.87 72.5719 1100.32 72.7974C1097.77 73.0222 1095.4 72.9633 1095.06 72.6664C1094.71 72.3676 1095.36 72.1256 1096.51 72.1256C1097.65 72.1256 1098.75 71.8677 1098.94 71.5529C1099.3 70.9783 1102.1 71.217 1103.96 71.9794ZM1129.05 71.8829C1129.2 72.0164 1127.56 72.1044 1125.41 72.0793C1122.62 72.0462 1121.87 71.8703 1122.82 71.4656C1124 70.9611 1128.33 71.2514 1129.05 71.8829ZM1131.92 71.2408C1131.46 71.4246 1130.72 71.4246 1130.26 71.2408C1129.81 71.0576 1130.18 70.9075 1131.09 70.9075C1132 70.9075 1132.37 71.0576 1131.92 71.2408ZM1087.66 72.1705C1095.1 72.2406 1091.05 73.2245 1079.81 74.0822C1074.35 74.4987 1062.91 75.5799 1054.39 76.4851C1045.87 77.391 1038.42 78.0351 1037.84 77.9167C1035.33 77.4023 1054.01 74.6687 1068.89 73.3733C1073.8 72.9455 1078.12 72.3213 1078.48 71.986C1078.85 71.6508 1080 71.545 1081.05 71.7513C1082.09 71.9569 1085.07 72.1454 1087.66 72.1705ZM1113.71 71.947C1112.33 72.0898 1110.25 72.0879 1109.07 71.9417C1107.9 71.7956 1109.02 71.6786 1111.57 71.6812C1114.12 71.6845 1115.08 71.8035 1113.71 71.947ZM1184.69 73.1042C1197.5 73.4771 1203.38 73.895 1207.85 74.75C1209.49 75.0628 1213.06 75.6804 1215.79 76.1214C1229.85 78.3948 1242.05 84.6223 1244.13 90.5973C1244.7 92.2253 1244.45 92.9573 1242.24 96.2959C1238.73 101.565 1235.38 103.603 1219.59 110.057C1217.91 110.745 1217.11 111.49 1217.11 112.373C1217.11 113.86 1220.45 114.792 1228.42 115.532L1233.07 115.964L1232.54 119.668C1231.64 126.074 1232.05 140.272 1233.22 143.06C1234.59 146.326 1239.44 151.904 1241.75 152.86C1242.76 153.277 1243.58 154.023 1243.58 154.517C1243.58 155.011 1244.77 156.023 1246.23 156.764C1247.68 157.506 1248.88 158.347 1248.88 158.632C1248.88 158.917 1247.82 160.175 1246.52 161.429C1245.22 162.682 1242.79 165.716 1241.11 168.171C1239.43 170.625 1237.82 172.634 1237.53 172.634C1237.24 172.634 1236.5 173.601 1235.9 174.783C1235.3 175.966 1233.28 178.456 1231.42 180.319C1229.56 182.183 1226.43 185.456 1224.48 187.593C1213.31 199.817 1191.21 215.801 1183.28 217.384L1181.42 217.756L1181.75 210.258C1182.12 201.647 1182.35 200.585 1186.52 188.504C1190.49 177 1191.75 175.094 1195.76 174.493C1199.92 173.868 1206.38 170.564 1209.17 167.633C1210.45 166.297 1213.31 163.379 1215.55 161.149C1217.78 158.919 1220.07 156.164 1220.65 155.026C1221.23 153.888 1222.12 152.796 1222.63 152.6C1223.14 152.403 1224.22 150.885 1225.02 149.225C1226.89 145.368 1226.96 139.427 1225.19 135.447C1224.11 133.023 1223.25 132.281 1219.04 130.14C1213.51 127.334 1210.36 127.041 1202.34 128.592C1198.18 129.395 1197.5 129.779 1193.85 133.362C1183.31 143.705 1168.77 172.742 1166.48 188.05C1166.22 189.731 1165.6 191.45 1165.1 191.87C1164.59 192.29 1164.18 193.016 1164.18 193.483C1164.18 194.298 1161.18 200.931 1159.25 204.374C1158.75 205.283 1157.81 207.292 1157.18 208.837C1156.55 210.383 1155.86 211.651 1155.64 211.655C1155.42 211.659 1154.65 212.924 1153.92 214.465C1153.2 216.007 1152.23 217.566 1151.77 217.929C1151.3 218.293 1150.79 219.284 1150.63 220.131C1150.12 222.78 1149.55 224.211 1148.99 224.211C1148.7 224.211 1148.46 224.926 1148.46 225.8C1148.46 227.64 1144.44 232.959 1143.5 232.374C1143.11 232.138 1143.04 232.555 1143.32 233.418C1143.8 234.942 1142.61 237.018 1141.6 236.398C1141.28 236.199 1141.02 236.648 1141.02 237.397C1141.02 238.145 1140.72 238.758 1140.35 238.758C1139.99 238.758 1139.69 239.131 1139.69 239.585C1139.69 240.761 1128.18 251.983 1126.97 251.983C1125.8 251.983 1124.87 246.164 1125.85 244.979C1126.18 244.582 1126.29 244.103 1126.1 243.914C1125.91 243.725 1126.11 242.711 1126.54 241.661C1126.98 240.61 1127.4 237.072 1127.49 233.799C1127.62 229.088 1128 227.09 1129.32 224.211C1130.71 221.17 1130.9 220.059 1130.48 217.431C1130.14 215.311 1130.23 213.913 1130.77 213.133C1131.21 212.498 1131.77 210.863 1132.02 209.498C1132.27 208.135 1132.73 207.019 1133.03 207.019C1133.62 207.019 1133.72 206.573 1135.39 196.439C1135.96 192.984 1136.83 189.849 1137.33 189.472C1137.92 189.024 1138.21 187.505 1138.17 185.069C1138.13 182.93 1138.47 180.918 1138.95 180.332C1139.42 179.771 1139.87 178.926 1139.95 178.453C1140.03 177.98 1140.43 176.552 1140.84 175.279C1142.14 171.224 1143.16 163.822 1142.91 160.235C1142.78 158.326 1142.89 156.764 1143.17 156.764C1143.44 156.764 1143.66 155.303 1143.66 153.517C1143.66 150.705 1143.39 150.041 1141.63 148.563C1138.82 146.198 1131.13 143.95 1127.32 144.379C1124.27 144.722 1120.7 146.815 1120.99 148.09C1121.08 148.475 1120.57 149.103 1119.85 149.487C1118.28 150.323 1111.45 159.412 1110.21 162.31C1109.73 163.442 1107.98 166.452 1106.32 168.997C1103.61 173.167 1102.96 174.659 1103.46 175.581C1103.55 175.747 1103.07 176.292 1102.39 176.79C1101.71 177.289 1101.15 178.48 1101.15 179.436C1101.15 180.393 1100.59 181.68 1099.91 182.297C1099.22 182.914 1098.67 183.986 1098.67 184.678C1098.67 185.37 1098.38 185.763 1098.04 185.549C1097.69 185.335 1097.21 186.285 1096.97 187.659C1096.73 189.033 1096.05 190.901 1095.47 191.81C1094.88 192.719 1093.84 194.654 1093.15 196.108C1089.83 203.123 1087.69 207.177 1087.15 207.513C1086.82 207.718 1086.75 207.57 1086.98 207.186C1087.56 206.244 1088.64 196.144 1089.37 184.867C1089.69 179.776 1090.42 173.676 1090.99 171.312C1091.56 168.948 1092.45 161.955 1092.97 155.773C1093.83 145.439 1093.82 144.442 1092.81 143.419C1090.97 141.543 1074.84 139.95 1073.86 141.547C1073.64 141.906 1073.77 143.319 1074.15 144.688C1074.63 146.441 1074.62 149.815 1074.09 156.103L1073.34 165.03L1066.12 179.542C1055.37 201.166 1044.12 217.377 1035.26 224.046C1031.91 226.561 1031.67 226.294 1030.86 219.088C1030.4 215.092 1031.34 204.093 1032.87 195.447C1034.4 186.774 1040.78 165.925 1043.65 160.206C1044.33 158.859 1045.04 156.495 1045.24 154.954C1045.67 151.625 1044.42 149.667 1040.46 147.442C1038.1 146.119 1037.95 145.856 1038.55 144.274C1038.91 143.324 1039.16 142.548 1039.1 142.548C1039.05 142.548 1039.18 141.729 1039.39 140.729C1039.6 139.73 1039.93 138.167 1040.12 137.258C1040.71 134.383 1038.74 135.353 1036.2 139.189C1034.89 141.161 1033.64 143.244 1033.42 143.818C1033.16 144.481 1032.21 144.862 1030.81 144.862C1028.34 144.862 1027.86 145.376 1027.15 148.779C1026.51 151.818 1023.35 159.429 1022.16 160.784C1021.66 161.358 1021.24 162.326 1021.24 162.933C1021.24 163.541 1021.01 164.038 1020.73 164.038C1020.44 164.038 1019.86 164.857 1019.44 165.857C1019.01 166.856 1017.59 169.46 1016.29 171.642C1014.98 173.824 1013.57 176.354 1013.14 177.263C1012.71 178.172 1010.59 182.029 1008.42 185.834C1006.25 189.639 1003.02 195.887 1001.23 199.72C999.443 203.553 995.654 211.3 992.81 216.937C983.856 234.687 974.995 255.919 969.011 273.963C967.474 278.596 965.943 282.556 965.608 282.763C965.273 282.97 964.999 284.02 964.999 285.098C964.999 286.174 964.246 288.905 963.327 291.166C962.408 293.427 961.476 296.396 961.257 297.765C961.038 299.134 960.674 300.255 960.448 300.255C960.221 300.256 959.978 301.088 959.908 302.105C959.742 304.494 956.635 314.009 955.41 315.876C954.89 316.669 952.488 322.628 950.072 329.119C947.657 335.61 944.368 343.467 942.765 346.579C939.989 351.97 933.2 361.088 931.963 361.088C931.643 361.088 931.011 360.121 930.559 358.939C929.566 356.343 928.637 323.891 929.427 319.43C929.717 317.793 930.378 312.97 930.896 308.712C931.414 304.453 932.112 300.436 932.447 299.785C932.782 299.134 933.254 296.144 933.493 293.142C933.733 290.139 934.502 284.906 935.2 281.514C935.898 278.121 936.661 272.99 936.894 270.111C937.128 267.233 937.898 263.065 938.606 260.85C939.313 258.634 940.305 253.677 940.81 249.834C941.314 245.991 942.016 242.299 942.369 241.63C942.721 240.96 943.221 238.849 943.479 236.94C943.737 235.031 944.159 233.468 944.417 233.468C944.674 233.468 944.914 232.465 944.948 231.237C944.983 230.01 945.409 228.3 945.894 227.435C946.379 226.571 946.814 224.674 946.86 223.219C946.907 221.764 947.443 217.187 948.052 213.046C948.661 208.905 949.024 205.382 948.858 205.216C948.692 205.051 948.967 203.752 949.47 202.331C949.972 200.908 950.21 199.745 950 199.745C949.789 199.745 949.966 199.325 950.392 198.812C950.902 198.199 950.937 197.738 950.495 197.465C949.752 197.005 949.979 191.77 950.8 190.441C951.088 189.977 951.557 188.533 951.845 187.232C952.132 185.932 952.57 184.018 952.818 182.979C953.127 181.686 952.979 180.906 952.351 180.509C951.796 180.157 951.735 179.924 952.196 179.918C953.241 179.904 954.259 176.73 954.798 171.801C955.047 169.532 955.633 166.918 956.101 165.992C956.826 164.558 957.498 161.096 958.66 152.797C958.787 151.888 959.229 149.656 959.641 147.838C960.053 146.019 960.701 142.449 961.081 139.903C961.811 135.004 965.389 122.965 966.286 122.39C967.12 121.854 972.453 99.1935 973.29 92.624C974.034 86.7859 973.797 86.9367 982.998 86.4487C993.193 85.9078 1014.92 83.6708 1015.91 83.0605C1016.32 82.8086 1019.35 82.476 1022.65 82.3212C1025.96 82.1658 1028.98 81.8385 1029.38 81.5925C1029.78 81.3472 1032.21 80.9075 1034.77 80.6159C1037.34 80.3236 1041.53 79.794 1044.07 79.4376C1048.64 78.7988 1053.98 78.2315 1068.89 76.7952C1077.86 75.9317 1102.33 74.8247 1120.5 74.4597C1139.71 74.0749 1148.15 73.5995 1149.45 72.8311C1150.58 72.1626 1153.05 72.1818 1184.69 73.1042ZM304.981 77.0849C305.891 79.3496 304.764 84.5926 301.215 94.6078C300.12 97.6991 298.779 101.822 298.235 103.77C296.96 108.342 291.548 117.013 284.762 125.355C281.804 128.992 277.766 134.073 275.788 136.647C271.38 142.384 270.049 143.184 266.158 142.435C263.588 141.941 263.073 141.53 261.758 138.93C258.324 132.14 260.392 120.218 267.942 103.272C268.492 102.037 270.902 98.4039 273.297 95.1989C278.13 88.7313 286.541 81.7691 294.939 77.2839C300.828 74.1377 303.774 74.0795 304.981 77.0849ZM1285.65 77.0849C1286.56 79.3496 1285.43 84.5926 1281.88 94.6078C1280.79 97.6991 1279.44 101.822 1278.9 103.77C1277.63 108.342 1272.21 117.013 1265.43 125.355C1262.47 128.992 1258.43 134.073 1256.45 136.647C1252.05 142.384 1250.72 143.184 1246.82 142.435C1244.25 141.941 1243.74 141.53 1242.42 138.93C1239.39 132.938 1241.46 118.032 1246.61 108.646C1247.96 106.199 1250 102.41 1251.15 100.228C1254.79 93.3249 1257.92 89.6782 1264.51 84.662C1276.96 75.1825 1283.89 72.7008 1285.65 77.0849ZM1035.98 78.5105C1035.53 78.6917 1034.64 78.7029 1034 78.535C1033.35 78.367 1033.72 78.2189 1034.81 78.2057C1035.9 78.1924 1036.43 78.3293 1035.98 78.5105ZM950.441 89.3311C950.441 90.5391 943.808 121.26 942.52 126.017C940.861 132.148 939.662 138.371 936.855 155.416C935.57 163.22 934.296 169.766 934.025 169.963C933.753 170.159 932.983 171.562 932.313 173.08C931.609 174.677 930.754 175.708 930.284 175.529C929.367 175.177 926.857 181.166 926.199 185.279C925.971 186.705 925.525 188.032 925.209 188.227C924.449 188.696 924.481 187.669 925.294 185.534C925.656 184.58 925.689 183.963 925.367 184.162C925.044 184.361 924.58 185.345 924.336 186.349C924.092 187.352 923.162 189.287 922.272 190.648C919.601 194.728 917.186 200.613 918.369 200.159C919.221 199.832 919.248 199.996 918.552 201.248C918.102 202.058 917.722 202.891 917.709 203.098C917.667 203.788 915.533 205.639 915.184 205.29C914.995 205.101 914.616 205.31 914.342 205.755C914.022 206.27 914.118 206.391 914.606 206.09C916.054 205.196 915.367 207.031 913.716 208.465C912.806 209.255 912.061 210.236 912.061 210.642C912.061 211.05 911.721 211.723 911.305 212.139C910.889 212.555 910.477 213.807 910.389 214.921C910.213 217.161 908.932 219.11 908.011 218.541C907.294 218.098 906.043 219.334 904.951 221.566C904.505 222.475 903.619 223.963 902.981 224.872C901.949 226.342 901.944 226.428 902.932 225.651C903.949 224.849 903.978 224.946 903.275 226.808C902.853 227.925 902.284 228.84 902.011 228.84C901.739 228.84 901.706 228.345 901.938 227.739C902.222 227 902.107 226.796 901.586 227.117C901.16 227.38 900.812 227.862 900.812 228.188C900.812 228.514 900.058 229.892 899.135 231.25C898.213 232.608 897.623 234.147 897.823 234.67C898.244 235.766 896.964 237.589 896.133 237.076C895.826 236.886 895.098 237.708 894.514 238.902L893.454 241.073L894.802 239.42C896.616 237.197 896.518 238.471 894.623 241.734C893.779 243.189 892.742 244.304 892.318 244.214C891.895 244.122 891.548 244.364 891.548 244.749C891.548 245.133 891.25 245.265 890.886 245.04C890.522 244.815 890.223 245.17 890.221 245.828C890.218 246.486 889.818 247.788 889.33 248.721C888.318 250.661 887.301 254.035 887.486 254.842C887.555 255.143 887.285 255.187 886.888 254.942C886.479 254.689 886.008 255.098 885.802 255.884C885.602 256.648 885.175 257.273 884.854 257.273C884.533 257.273 884.316 257.496 884.372 257.769C884.429 258.042 883.817 259.753 883.012 261.571C882.207 263.39 881.26 265.576 880.908 266.431C880.556 267.286 879.662 268.143 878.922 268.336C878.023 268.572 877.711 269.037 877.98 269.738C878.202 270.315 878.174 270.579 877.918 270.323C877.236 269.642 875.713 271.908 875.688 273.639C875.676 274.458 875.414 275.127 875.106 275.127C874.363 275.127 871.973 280.466 872.224 281.562C872.332 282.033 871.961 282.594 871.401 282.809C870.84 283.024 870.566 283.5 870.793 283.866C871.019 284.232 870.897 284.722 870.521 284.954C870.146 285.186 867.587 289.839 864.836 295.295C857.708 309.429 853.221 316.093 853.152 312.652C853.143 312.198 853.026 308.552 852.892 304.552C852.758 300.551 852.906 296.237 853.219 294.964C853.73 292.9 854.442 284.243 854.477 279.71C854.483 278.775 855.216 275.877 856.103 273.269C856.991 270.66 857.896 267.11 858.113 265.379C858.882 259.263 860.042 254.287 860.901 253.424C861.38 252.943 861.778 251.604 861.787 250.448C861.795 249.292 862.538 246.561 863.438 244.379C864.338 242.197 865.075 239.876 865.076 239.221C865.078 238.565 866.308 235.146 867.809 231.622C869.31 228.097 871.515 222.384 872.708 218.926C873.901 215.468 876.245 208.963 877.916 204.47C881.532 194.745 882.272 190.684 882.279 180.533C882.284 173.204 882.205 172.768 880.331 169.815C878.275 166.576 874.256 163.27 870.373 161.625C869.099 161.085 865.079 160.058 861.44 159.343C857.801 158.627 853.867 157.616 852.698 157.096L850.574 156.15L857.409 145.381C866.117 131.661 874.942 116.564 875.464 114.497C875.686 113.616 877.169 110.45 878.759 107.463C882.262 100.884 881.282 101.276 900.481 98.7835C901.937 98.5944 903.411 98.1725 903.757 97.8465C904.102 97.5199 905.946 97.2527 907.854 97.2527C909.761 97.2527 911.506 96.9552 911.731 96.5915C911.956 96.2278 912.701 95.9302 913.386 95.9302C914.072 95.9302 915.617 95.351 916.821 94.6428C918.91 93.4136 926.476 91.9039 937.207 90.5755C939.936 90.2376 943.51 89.7046 945.147 89.3912C949.4 88.5786 950.441 88.5667 950.441 89.3311ZM861.771 104.248C861.771 104.854 855.25 115.339 846.876 128.196C839.112 140.116 837.598 142.095 837.013 141.09C836.634 140.437 836.213 136.48 836.078 132.296C835.86 125.503 836.058 123.781 837.925 116.198C840.597 105.343 840.869 104.673 842.711 104.412C844.882 104.105 861.771 103.959 861.771 104.248ZM232.511 116.93C229.088 119.7 232.13 126.347 236.821 126.347C239.418 126.347 240.43 125.206 240.893 121.758C241.412 117.893 239.855 115.767 236.506 115.767C235.05 115.767 233.327 116.269 232.511 116.93ZM1041.13 116.93C1037.71 119.7 1040.75 126.347 1045.44 126.347C1048.04 126.347 1049.05 125.206 1049.51 121.758C1050.03 117.893 1048.47 115.767 1045.12 115.767C1043.67 115.767 1041.95 116.269 1041.13 116.93ZM951.629 131.608C950.717 133.068 950.074 132.886 950.669 131.335C950.885 130.774 951.371 130.315 951.749 130.315C952.185 130.315 952.141 130.789 951.629 131.608ZM1215.79 140.891C1215.79 143.847 1211.99 150.554 1208.63 153.508C1206.09 155.749 1200.13 159.409 1199.02 159.409C1198.14 159.409 1208.62 141.607 1210.76 139.47C1213.2 137.028 1213.4 136.952 1214.56 138.005C1215.24 138.616 1215.79 139.915 1215.79 140.891ZM522.309 151.105C522.309 151.266 522.012 151.58 521.648 151.805C521.284 152.03 520.986 151.898 520.986 151.514C520.986 151.129 521.284 150.813 521.648 150.813C522.012 150.813 522.309 150.944 522.309 151.105ZM950.044 151.319C949.644 151.586 949.146 152.251 948.938 152.797C948.686 153.46 948.543 153.295 948.508 152.301C948.473 151.301 948.836 150.817 949.614 150.823C950.328 150.83 950.493 151.02 950.044 151.319ZM769.47 156.269C769.279 157.087 768.393 161.773 767.499 166.683C765.756 176.264 763.144 186.014 761.415 189.393C755.306 201.329 745.445 214.954 742.915 214.954C741.152 214.954 740.547 212.279 740.918 206.121C741.429 197.646 741.936 194.523 743.29 191.48C744.809 188.068 746.893 182.411 746.945 181.561C747.008 180.519 750.502 174.097 751.261 173.627C751.638 173.395 752.345 172.259 752.832 171.101C753.319 169.944 754.744 167.658 755.997 166.022C757.251 164.385 758.847 162.08 759.545 160.897C760.243 159.715 761.121 158.743 761.498 158.736C761.875 158.73 763.492 157.837 765.094 156.753C768.635 154.355 769.95 154.209 769.47 156.269ZM669.542 160.732C669.317 161.096 668.835 161.393 668.471 161.393C668.107 161.393 667.993 161.096 668.218 160.732C668.443 160.368 668.925 160.071 669.289 160.071C669.653 160.071 669.767 160.368 669.542 160.732ZM668.218 169.328C667.993 169.692 667.455 169.985 667.021 169.979C666.547 169.973 666.63 169.713 667.226 169.328C668.497 168.507 668.726 168.507 668.218 169.328ZM946.518 173.393C944.926 174.876 944.706 174.904 944.706 173.626C944.706 173.081 944.954 172.634 945.258 172.634C945.561 172.634 945.809 172.152 945.809 171.562C945.809 170.674 945.984 170.633 946.821 171.328C947.721 172.074 947.687 172.306 946.518 173.393ZM945.147 181.962C945.147 182.287 944.701 182.553 944.155 182.553C943.609 182.553 943.162 182.116 943.162 181.582C943.162 180.99 943.55 180.76 944.155 180.991C944.701 181.201 945.147 181.638 945.147 181.962ZM942.14 184.702C941.499 186.821 940.755 187.438 940.293 186.234C940.074 185.664 940.184 185.198 940.536 185.198C940.888 185.198 941.177 184.752 941.177 184.206C941.177 183.66 941.495 183.214 941.883 183.214C942.308 183.214 942.41 183.807 942.14 184.702ZM944.621 186.108C944.472 187.381 943.746 188.96 943.007 189.62C941.702 190.783 941.674 190.779 942.05 189.496C942.263 188.769 942.642 187.281 942.891 186.19C943.462 183.695 943.788 183.114 944.403 183.494C944.672 183.66 944.769 184.836 944.621 186.108ZM662.384 188.628C662.173 189.155 662.016 188.999 661.984 188.228C661.956 187.531 662.112 187.141 662.332 187.361C662.551 187.58 662.575 188.151 662.384 188.628ZM938.861 190.488C938.636 190.851 937.948 191.128 937.333 191.103C936.421 191.064 936.459 190.951 937.538 190.488C939.308 189.727 939.331 189.727 938.861 190.488ZM660.477 195.973C659.705 198.775 658.829 201.068 658.531 201.068C658.234 201.068 658.352 200.273 658.795 199.301C659.408 197.957 659.415 197.474 658.823 197.277C658.32 197.109 658.527 196.535 659.405 195.658C660.415 194.648 660.555 194.17 659.947 193.794C659.331 193.414 659.435 192.969 660.365 191.999C661.045 191.289 661.664 190.746 661.741 190.793C661.819 190.84 661.25 193.171 660.477 195.973ZM942.143 193.215C941.843 194.161 941.937 194.473 942.43 194.168C942.833 193.92 943.162 193.999 943.162 194.345C943.162 194.692 942.694 195.155 942.121 195.374C941.184 195.733 941.191 195.886 942.187 196.881C943.476 198.17 943.102 202.3 941.487 204.605C940.341 206.24 940.155 209.303 941.243 208.631C941.749 208.319 941.74 208.613 941.213 209.598C940.795 210.377 940.622 211.284 940.826 211.616C941.031 211.946 940.935 212.38 940.614 212.579C939.494 213.27 939.224 207.373 940.241 204.424C941.376 201.134 941.065 200.365 939.261 201.997C937.217 203.846 937.101 202.138 939.122 199.928C940.53 198.388 940.824 197.629 940.347 196.775C939.93 196.032 939.965 195.402 940.446 194.921C940.848 194.519 941.177 193.655 941.177 193C941.177 192.346 941.495 191.81 941.883 191.81C942.303 191.81 942.408 192.382 942.143 193.215ZM158.762 193.529C158.526 194.142 158.482 194.793 158.664 194.975C158.846 195.157 159.188 194.804 159.423 194.191C159.659 193.578 159.703 192.927 159.521 192.745C159.339 192.563 158.997 192.917 158.762 193.529ZM671.186 192.967C671.168 193.873 669.951 195.415 669.562 195.027C669.041 194.505 669.871 192.471 670.605 192.471C670.93 192.471 671.191 192.694 671.186 192.967ZM657.952 193.629C657.946 193.902 657.665 194.562 657.326 195.097C656.563 196.302 655.669 195.548 656.205 194.153C656.601 193.123 657.97 192.712 657.952 193.629ZM657.033 207.986C655.511 212.864 655.073 213.629 653.805 213.61C652.354 213.59 652.352 213.578 653.657 212.592C654.79 211.737 654.837 211.507 653.988 210.97C653.154 210.443 653.187 210.344 654.196 210.335C654.854 210.33 655.208 210.025 654.981 209.659C654.754 209.293 655.059 208.805 655.659 208.575C656.54 208.237 656.579 208.038 655.867 207.538C655.176 207.053 655.164 206.845 655.811 206.583C656.266 206.399 656.638 205.822 656.638 205.302C656.638 204.199 658.113 201.659 658.519 202.065C658.67 202.217 658.002 204.881 657.033 207.986ZM1127.97 203.713C1127.64 204.982 1126.46 205.601 1126.46 204.506C1126.46 204.045 1127.81 202.39 1128.18 202.39C1128.26 202.39 1128.16 202.985 1127.97 203.713ZM666.895 207.019C666.67 207.382 666.188 207.68 665.824 207.68C665.46 207.68 665.346 207.382 665.571 207.019C665.796 206.655 666.278 206.358 666.642 206.358C667.006 206.358 667.12 206.655 666.895 207.019ZM653.661 207.68C653.436 208.044 652.972 208.341 652.629 208.341C652.286 208.341 652.006 208.044 652.006 207.68C652.006 207.316 652.471 207.019 653.038 207.019C653.605 207.019 653.885 207.316 653.661 207.68ZM932.244 208.341C932.019 208.705 931.555 209.003 931.212 209.003C930.869 209.003 930.589 208.705 930.589 208.341C930.589 207.978 931.054 207.68 931.621 207.68C932.188 207.68 932.469 207.978 932.244 208.341ZM1126.1 208.957C1126.31 209.295 1126.23 209.729 1125.92 209.92C1125.61 210.111 1125.35 209.834 1125.35 209.304C1125.35 208.189 1125.56 208.092 1126.1 208.957ZM1123.6 211.772C1123.39 212.299 1123.23 212.142 1123.2 211.372C1123.17 210.675 1123.33 210.285 1123.55 210.504C1123.77 210.724 1123.79 211.294 1123.6 211.772ZM654.653 215.245C654.653 216.626 653.28 217.263 652.604 216.196C651.707 214.78 651.893 214.292 653.33 214.292C654.058 214.292 654.653 214.721 654.653 215.245ZM1125.13 214.954C1125.13 215.317 1124.82 215.615 1124.43 215.615C1124.05 215.615 1123.92 215.317 1124.14 214.954C1124.37 214.59 1124.68 214.292 1124.84 214.292C1125 214.292 1125.13 214.59 1125.13 214.954ZM1157.64 221.081C1156.99 221.729 1156.91 221.653 1157.27 220.711C1157.52 220.059 1157.89 219.692 1158.09 219.896C1158.3 220.099 1158.09 220.632 1157.64 221.081ZM652.368 225.269C651.902 227.756 651.02 228.214 650.502 226.238C650.304 225.479 650.559 224.808 651.129 224.589C651.657 224.386 651.922 223.948 651.715 223.614C651.509 223.281 651.556 222.46 651.819 221.791C652.283 220.612 652.305 220.612 652.544 221.798C652.68 222.47 652.6 224.033 652.368 225.269ZM938.347 224.614C938.188 224.773 937.555 224.711 936.942 224.476C935.906 224.078 935.911 223.953 937.013 222.729C938.195 221.417 938.2 221.417 938.418 222.868C938.539 223.669 938.507 224.455 938.347 224.614ZM1123.81 222.558C1123.81 223.104 1123.52 223.55 1123.17 223.55C1122.82 223.55 1122.7 223.104 1122.91 222.558C1123.12 222.012 1123.41 221.566 1123.55 221.566C1123.69 221.566 1123.81 222.012 1123.81 222.558ZM918.679 224.25C918.679 224.635 918.976 224.767 919.34 224.542C919.704 224.317 920.002 224.002 920.002 223.841C920.002 223.681 919.704 223.55 919.34 223.55C918.976 223.55 918.679 223.865 918.679 224.25ZM1121.67 224.997C1121.27 226.223 1119.84 226.426 1119.84 225.258C1119.84 224.682 1120.31 224.211 1120.89 224.211C1121.46 224.211 1121.82 224.564 1121.67 224.997ZM649.179 226.648C649.308 227.033 648.837 227.499 648.133 227.683C646.94 227.995 646.841 227.745 647.323 225.644C647.434 225.164 648.96 225.99 649.179 226.648ZM662.594 226.236C662.594 226.577 662.172 226.856 661.656 226.856C661.141 226.856 660.575 227.228 660.4 227.683C660.225 228.138 660.11 227.899 660.145 227.152C660.207 225.83 662.594 224.937 662.594 226.236ZM937.463 229.738C937.222 231.79 936.736 233.468 936.383 233.468C936.03 233.468 935.913 233.022 936.123 232.477C936.332 231.931 936.205 231.485 935.839 231.485C935.449 231.485 935.525 230.871 936.022 229.997C936.855 228.534 936.978 228.12 937.131 226.25C937.172 225.735 937.363 225.469 937.554 225.661C937.745 225.852 937.704 227.687 937.463 229.738ZM1120.67 230.638C1120.21 230.801 1119.84 231.801 1119.84 232.862C1119.84 233.923 1119.49 234.791 1119.07 234.791C1118.64 234.791 1118.49 234.595 1118.73 234.356C1118.97 234.116 1118.81 233.488 1118.37 232.957C1117.72 232.178 1117.87 231.753 1119.13 230.731C1119.99 230.037 1120.87 229.665 1121.09 229.906C1121.31 230.146 1121.12 230.476 1120.67 230.638ZM649.578 237.296C648.727 240.464 647.447 247.032 646.732 251.891C646.016 256.749 645.15 261.063 644.807 261.479C644.463 261.893 644.082 263.102 643.958 264.165C643.835 265.228 643.32 266.234 642.814 266.4C642.137 266.623 641.98 266.25 642.22 264.993C642.45 263.793 642.231 263.199 641.487 263C640.805 262.818 640.958 262.689 641.915 262.64C642.734 262.597 643.404 262.275 643.404 261.922C643.404 261.571 642.957 261.454 642.411 261.662C641.865 261.872 641.419 261.714 641.419 261.311C641.419 260.909 641.834 260.579 642.341 260.579C642.847 260.579 643.434 260.133 643.643 259.588C643.853 259.042 643.699 258.596 643.302 258.596C642.826 258.596 642.861 258.258 643.404 257.604C644.027 256.854 644.035 256.612 643.438 256.612C642.931 256.612 643.021 256.238 643.688 255.573C644.259 255.001 644.762 254.034 644.803 253.424C644.923 251.688 645.045 251.106 645.649 249.389C646.066 248.204 645.938 247.585 645.157 247.014C644.209 246.322 644.266 246.017 645.715 244.055C646.603 242.851 647.193 241.645 647.025 241.375C646.858 241.104 647.166 239.819 647.71 238.519C648.253 237.22 648.676 235.774 648.651 235.308C648.625 234.842 648.349 235.055 648.036 235.783C647.723 236.51 647.446 236.723 647.421 236.256C647.385 235.616 647.052 235.578 646.067 236.105C644.893 236.733 644.815 236.651 645.311 235.301C645.658 234.357 646.511 233.722 647.611 233.59C648.573 233.475 649.359 233.112 649.359 232.784C649.359 232.456 648.838 232.355 648.201 232.559C647.447 232.801 647.616 232.463 648.687 231.592C649.627 230.827 650.5 230.529 650.727 230.895C650.945 231.248 650.428 234.128 649.578 237.296ZM1121.68 238.772C1121.65 239.859 1121.17 241.118 1120.63 241.571C1119.76 242.285 1119.69 242.13 1120.11 240.412C1120.37 239.32 1120.63 237.929 1120.69 237.319C1120.86 235.407 1121.74 236.697 1121.68 238.772ZM662.018 240.012C661.592 241.975 661.357 243.694 661.496 243.833C661.933 244.27 663.415 238.243 663.097 237.321C662.93 236.839 662.445 238.05 662.018 240.012ZM911.069 238.758C910.844 239.122 910.976 239.42 911.361 239.42C911.746 239.42 912.061 239.122 912.061 238.758C912.061 238.395 911.93 238.097 911.77 238.097C911.609 238.097 911.294 238.395 911.069 238.758ZM1118.85 244.048C1118.62 244.412 1118.14 244.71 1117.78 244.71C1117.41 244.71 1117.3 244.412 1117.52 244.048C1117.75 243.685 1118.23 243.387 1118.6 243.387C1118.96 243.387 1119.07 243.685 1118.85 244.048ZM891.338 248.14C891.127 248.667 890.97 248.51 890.939 247.74C890.91 247.043 891.066 246.653 891.286 246.872C891.506 247.092 891.53 247.663 891.338 248.14ZM644.968 248.342C644.759 248.886 644.322 249.166 643.996 248.965C643.062 248.388 643.305 247.355 644.376 247.355C644.966 247.355 645.198 247.743 644.968 248.342ZM1118.52 247.646C1118.52 247.807 1118.22 248.122 1117.86 248.346C1117.49 248.571 1117.19 248.44 1117.19 248.055C1117.19 247.67 1117.49 247.355 1117.86 247.355C1118.22 247.355 1118.52 247.485 1118.52 247.646ZM642.08 249.338C642.08 249.702 641.783 250 641.419 250C641.055 250 640.757 249.702 640.757 249.338C640.757 248.975 641.055 248.677 641.419 248.677C641.783 248.677 642.08 248.975 642.08 249.338ZM637.882 252.285C637.666 252.847 637.18 253.306 636.802 253.306C636.367 253.306 636.41 252.832 636.922 252.013C637.834 250.552 638.477 250.734 637.882 252.285ZM642.08 253.636C642.08 254.182 641.963 254.628 641.82 254.628C641.677 254.628 641.389 254.182 641.179 253.636C640.97 253.091 641.087 252.644 641.439 252.644C641.792 252.644 642.08 253.091 642.08 253.636ZM306.231 261.406C316.526 283.164 321.449 304.455 321.407 327.034C321.387 337.161 321.164 339.775 319.913 344.557C317.623 353.306 315.873 358.405 313.557 363.072C312.385 365.436 310.005 370.314 308.27 373.911C305.705 379.229 304.108 381.501 299.731 386.057C293.083 392.978 285.613 399.046 281.168 401.136C279.319 402.005 276.767 403.318 275.499 404.054C273.015 405.495 270.522 405.794 269.864 404.73C269.639 404.366 268.922 404.069 268.27 404.069C264.738 404.069 253.39 391.743 251.398 385.742C250.768 383.846 250.332 381.763 250.429 381.114C250.526 380.464 250.255 378.892 249.826 377.619C249.095 375.452 249.124 371.739 249.989 356.459C250.128 353.991 251.242 348.972 252.604 344.668C253.908 340.547 254.975 336.767 254.975 336.267C254.975 335.507 255.43 335.519 257.749 336.336C260.124 337.174 260.655 337.181 261.447 336.39C262.239 335.599 262.116 334.925 260.592 331.706C258.931 328.197 258.885 327.867 259.902 326.744C260.501 326.082 262.903 320.884 265.238 315.193C267.574 309.501 270.339 303.29 271.383 301.389C272.427 299.488 273.158 297.565 273.008 297.116C272.858 296.666 273.223 295.811 273.819 295.215C274.415 294.619 274.746 293.724 274.555 293.226C274.364 292.727 274.501 292.319 274.862 292.319C275.222 292.319 275.865 291.501 276.291 290.501C276.717 289.5 280.978 283.475 285.76 277.11C290.541 270.746 296.187 262.935 298.305 259.753C300.423 256.571 302.281 253.967 302.434 253.967C302.586 253.967 304.295 257.315 306.231 261.406ZM637.26 255.124C637.277 255.76 636.862 258.623 636.337 261.485C635.812 264.347 635.533 267.08 635.717 267.559C635.9 268.038 635.772 268.522 635.433 268.637C635.093 268.751 634.62 270.705 634.383 272.978C634.146 275.251 633.713 277.11 633.422 277.11C633.131 277.11 633.006 277.7 633.145 278.419C633.284 279.138 633.112 279.903 632.765 280.118C632.417 280.333 632.304 280.785 632.514 281.123C632.723 281.462 632.413 281.739 631.824 281.739C631.235 281.739 630.904 281.495 631.088 281.198C631.273 280.899 631.62 279.188 631.86 277.395C632.1 275.602 632.459 273.867 632.657 273.54C632.855 273.212 633.112 272.022 633.227 270.895C633.342 269.767 633.578 268.176 633.751 267.357C633.923 266.538 633.747 265.869 633.359 265.869C632.877 265.869 632.887 265.59 633.391 264.982C633.796 264.494 633.933 263.899 633.693 263.659C633.454 263.42 633.605 263.224 634.029 263.224C634.454 263.224 634.802 262.35 634.802 261.28C634.802 260.21 635.117 259.14 635.502 258.902C635.888 258.664 636.12 257.828 636.019 257.044C635.861 255.821 636.48 253.967 637.046 253.967C637.146 253.967 637.242 254.488 637.26 255.124ZM1286.9 261.406C1297.19 283.164 1302.12 304.455 1302.07 327.034C1302.05 337.161 1301.83 339.775 1300.58 344.557C1298.29 353.306 1296.54 358.405 1294.22 363.072C1293.05 365.436 1290.67 370.314 1288.94 373.911C1286.37 379.229 1284.77 381.501 1280.4 386.057C1273.75 392.978 1266.28 399.046 1261.83 401.136C1259.98 402.005 1257.43 403.318 1256.17 404.054C1253.68 405.495 1251.19 405.794 1250.53 404.73C1250.31 404.366 1249.59 404.069 1248.94 404.069C1245.4 404.069 1234.06 391.743 1232.06 385.742C1231.43 383.846 1231 381.763 1231.09 381.114C1231.19 380.464 1230.92 378.892 1230.49 377.619C1229.98 376.108 1229.83 372.78 1230.07 368.031C1230.26 364.031 1230.51 358.935 1230.62 356.708C1230.95 349.922 1237.48 330.53 1240.76 326.618C1241.25 326.025 1243.57 320.884 1245.9 315.193C1248.24 309.501 1251 303.29 1252.05 301.389C1253.09 299.488 1253.82 297.565 1253.67 297.116C1253.52 296.666 1253.89 295.811 1254.49 295.215C1255.08 294.619 1255.41 293.724 1255.22 293.226C1255.03 292.727 1255.17 292.319 1255.53 292.319C1255.89 292.319 1256.53 291.501 1256.96 290.501C1257.38 289.5 1261.64 283.475 1266.43 277.11C1271.21 270.746 1276.85 262.935 1278.97 259.753C1281.09 256.571 1282.95 253.967 1283.1 253.967C1283.25 253.967 1284.96 257.315 1286.9 261.406ZM641.209 256.736C640.998 257.263 640.841 257.107 640.809 256.336C640.781 255.639 640.937 255.249 641.157 255.469C641.376 255.688 641.4 256.259 641.209 256.736ZM1121.83 259.257C1122.37 259.609 1122.52 259.898 1122.16 259.898C1121.79 259.898 1121.05 259.609 1120.5 259.257C1119.96 258.904 1119.81 258.616 1120.17 258.616C1120.54 258.616 1121.28 258.904 1121.83 259.257ZM638.772 262.855C638.772 263.015 638.474 263.33 638.11 263.555C637.746 263.78 637.448 263.648 637.448 263.263C637.448 262.878 637.746 262.563 638.11 262.563C638.474 262.563 638.772 262.694 638.772 262.855ZM650.473 265.332C650.262 265.859 650.105 265.703 650.073 264.932C650.045 264.235 650.201 263.845 650.421 264.065C650.64 264.284 650.664 264.855 650.473 265.332ZM636.869 266.707C636.215 267.355 636.14 267.279 636.498 266.337C636.747 265.685 637.117 265.318 637.321 265.521C637.525 265.724 637.321 266.258 636.869 266.707ZM643.194 270.329C643.274 272.408 642.961 273.858 642.264 274.627C641.556 275.41 641.477 275.788 642.022 275.788C643.111 275.788 642.286 278.498 640.856 279.619C639.921 280.352 639.715 280.266 639.418 279.019C639.228 278.218 638.53 277.483 637.869 277.386C636.163 277.136 635.758 276.551 636.666 275.644C637.268 275.042 637.453 275.159 637.47 276.152C637.489 277.364 637.543 277.372 638.37 276.284C638.853 275.648 639.588 275.127 640.003 275.127C640.418 275.127 640.757 274.68 640.757 274.135C640.757 273.589 640.414 273.143 639.994 273.143C639.575 273.143 639.946 272.523 640.82 271.766C642.342 270.446 642.358 270.353 641.186 269.496C639.814 268.494 640.248 267.192 641.954 267.192C642.831 267.192 643.099 267.872 643.194 270.329ZM648.351 290.28C647.367 291.242 647.314 291.06 647.693 288.021C647.92 286.202 648.103 283.971 648.099 283.062C648.083 278.886 649.041 279.969 649.22 284.329C649.378 288.168 649.189 289.461 648.351 290.28ZM640.276 281.479C640.786 281.988 639.263 283.681 638.636 283.302C638.072 282.961 638.714 281.078 639.394 281.078C639.659 281.078 640.056 281.258 640.276 281.479ZM647.195 283.461C646.975 283.681 646.404 283.704 645.927 283.513C645.399 283.302 645.556 283.146 646.327 283.114C647.024 283.085 647.415 283.241 647.195 283.461ZM636.125 284.715C636.125 285.26 636.008 285.707 635.865 285.707C635.722 285.707 635.433 285.26 635.224 284.715C635.015 284.169 635.132 283.723 635.484 283.723C635.836 283.723 636.125 284.169 636.125 284.715ZM632.155 285.626C632.155 285.945 631.708 286.576 631.162 287.029C630.477 287.598 630.17 287.623 630.17 287.11C630.17 286.702 630.485 286.368 630.87 286.368C631.255 286.368 631.387 286.07 631.162 285.707C630.937 285.343 631.069 285.045 631.454 285.045C631.839 285.045 632.155 285.306 632.155 285.626ZM115.352 286.864C115.35 287.52 95.6225 290.676 95.0567 290.112C94.8159 289.871 95.0408 289.661 95.5563 289.644C96.0724 289.628 100.514 288.914 105.427 288.057C110.34 287.2 114.584 286.469 114.857 286.433C115.129 286.397 115.352 286.591 115.352 286.864ZM162.997 287.437C162.997 287.576 162.029 287.686 160.846 287.68C159.384 287.673 158.984 287.487 159.596 287.1C160.417 286.58 162.997 286.835 162.997 287.437ZM171.103 288.789C170.648 288.973 169.904 288.973 169.448 288.789C168.994 288.606 169.366 288.456 170.276 288.456C171.185 288.456 171.558 288.606 171.103 288.789ZM635.463 289.013C635.463 289.376 635.148 289.674 634.762 289.674C634.377 289.674 634.246 289.376 634.471 289.013C634.696 288.649 635.011 288.352 635.171 288.352C635.332 288.352 635.463 288.649 635.463 289.013ZM175.238 289.674C175.463 290.038 175.017 290.335 174.246 290.335C173.475 290.335 173.028 290.038 173.253 289.674C173.478 289.31 173.925 289.013 174.246 289.013C174.567 289.013 175.013 289.31 175.238 289.674ZM113.194 293.807C113.108 294.625 112.888 295.443 112.706 295.625C111.649 296.682 110.842 298.861 111.436 299.059C111.802 299.181 111.494 299.934 110.75 300.732C110.006 301.529 109.397 302.541 109.397 302.979C109.397 304.278 107.207 308.85 106.584 308.85C106.269 308.85 106.18 309.124 106.387 309.458C106.594 309.792 106.295 310.534 105.722 311.106C105.149 311.678 104.867 312.446 105.093 312.812C105.32 313.179 105.051 313.479 104.494 313.479C103.87 313.479 103.629 313.856 103.862 314.465C104.079 315.028 103.785 315.626 103.18 315.858C102.596 316.082 102.119 316.759 102.119 317.363C102.119 317.967 101.416 319.498 100.558 320.764C99.6993 322.031 98.7862 323.737 98.5281 324.554C98.27 325.372 97.7817 326.042 97.4422 326.042C97.1027 326.042 96.8771 326.265 96.9406 326.538C97.1239 327.327 95.3452 330.671 94.7417 330.671C94.08 330.671 90.5259 336.086 90.7271 336.787C90.8052 337.061 90.4565 337.283 89.9522 337.283C89.448 337.283 88.5401 338.325 87.936 339.598C87.3318 340.871 86.6039 341.912 86.3187 341.912C86.0335 341.912 84.851 343.233 83.691 344.847C82.531 346.461 81.0104 347.962 80.3123 348.184C79.6149 348.405 78.9498 348.968 78.8354 349.435C78.5766 350.492 72.506 355.897 69.7539 357.521C68.6297 358.185 67.7092 359.128 67.7092 359.617C67.7092 360.105 68.007 360.321 68.3709 360.096C68.7349 359.871 69.0327 359.971 69.0327 360.317C69.0327 361.042 67.4485 361.749 65.8266 361.749C65.2152 361.749 64.4205 362.419 64.0612 363.237C63.5874 364.317 61.9563 365.218 58.1143 366.523C51.6593 368.717 52.274 368.54 51.5812 368.413C51.2635 368.355 51.1841 368.778 51.4045 369.352C51.8876 370.609 50.3226 371.355 48.6848 370.648C47.2463 370.028 44.4717 370.267 43.4553 371.099C42.957 371.507 42.5739 371.427 42.3496 370.869C42.1318 370.326 41.9876 370.436 41.9545 371.172C41.9261 371.808 41.5866 372.329 41.2015 372.329C40.8164 372.329 40.7244 372.701 40.9977 373.156C41.3689 373.774 41.2266 373.765 40.4326 373.122C39.8449 372.647 38.0868 372.328 36.5006 372.409C34.9218 372.49 32.9823 372.209 32.1895 371.784C31.3975 371.359 30.2805 371.191 29.7081 371.411C29.1364 371.63 28.6679 371.48 28.6679 371.077C28.6679 370.675 28.1279 370.345 27.4682 370.345C25.3024 370.345 22.7567 366.842 21.4194 362.02C18.9922 353.266 19.9616 349.265 27.2227 338.068C32.3596 330.148 38.9179 322.439 42.1907 320.473C43.4487 319.718 46.7652 317.686 49.5603 315.958C52.3554 314.231 54.7733 312.817 54.9334 312.817C55.0936 312.817 56.2165 312.062 57.4281 311.138C59.7627 309.359 70.7366 304.908 82.267 301.064C86.0884 299.79 91.0262 297.877 93.2403 296.813C96.4787 295.256 98.3759 294.826 102.949 294.613C106.075 294.468 109.623 293.917 110.835 293.388C112.046 292.859 113.108 292.402 113.194 292.373C113.281 292.343 113.281 292.989 113.194 293.807ZM627.975 297.733C627.764 298.26 627.607 298.104 627.575 297.333C627.546 296.636 627.703 296.246 627.922 296.466C628.142 296.685 628.166 297.256 627.975 297.733ZM125.399 325.05C124.513 326.993 125.561 327.325 126.579 325.425C127.409 323.874 127.44 323.397 126.709 323.397C126.403 323.397 125.813 324.141 125.399 325.05ZM78.2967 373.965C78.2967 374.317 74.6255 376.297 73.9731 376.297C73.7428 376.297 73.6759 375.933 73.8242 375.489C74.1358 374.554 78.2967 373.137 78.2967 373.965Z" fill="black"/>
</svg>
